<svg xmlns="http://www.w3.org/2000/svg" width="800" height="222" viewBox="0 0 800 222">
<defs>
  <linearGradient id="bar1" x1="0" x2="1" y1="0" y2="0">
    <stop offset="0%" stop-color="#FF9900"/>
    <stop offset="100%" stop-color="#A259FF"/>
  </linearGradient>
  <linearGradient id="bar2" x1="0" x2="1" y1="0" y2="0">
    <stop offset="0%" stop-color="#FF3333"/>
    <stop offset="100%" stop-color="#FF9900"/>
  </linearGradient>
</defs>

<rect width="800" height="222" fill="#0d1117"/>

<!-- ═══════════════════════════════════════════
     CARD 1  —  Multi-Zone AWS Architecture
     x=8  y=8  w=384  h=206
═══════════════════════════════════════════ -->
<rect x="8" y="8" width="384" height="206" rx="10" fill="#07101F" stroke="#1E2D40" stroke-width="1"/>
<rect x="8" y="8" width="384" height="3" rx="1.5" fill="url(#bar1)"/>

<text x="24" y="27" fill="#FF9900" font-size="7" font-weight="bold" font-family="Courier New,monospace" letter-spacing="1" opacity="0.9">PROJECT  01/02</text>
<rect x="332" y="16" width="48" height="14" rx="6" fill="#FF9900" fill-opacity="0.12" stroke="#FF9900" stroke-width="0.7" stroke-opacity="0.5"/>
<text x="356" y="26" text-anchor="middle" fill="#FF9900" font-size="6.5" font-family="Courier New,monospace">AWS · IaC</text>

<text x="24" y="48" fill="#FFFFFF" font-size="13.5" font-weight="bold" font-family="Courier New,monospace">Multi-Zone AWS Architecture</text>
<text x="24" y="62" fill="#6A7A8C" font-size="7.5" font-family="Courier New,monospace">Terraform-automated  ·  GitHub Actions CI/CD  ·  Zero-touch</text>

<line x1="24" y1="72" x2="376" y2="72" stroke="#1A2535" stroke-width="0.8"/>

<text x="85" y="94" text-anchor="middle" fill="#E6EDF3" font-size="22" font-weight="bold" font-family="Courier New,monospace">3</text>
<text x="85" y="107" text-anchor="middle" fill="#6A7A8C" font-size="7" font-family="Courier New,monospace">Availability Zones</text>
<line x1="152" y1="80" x2="152" y2="110" stroke="#1A2535" stroke-width="0.8"/>
<text x="200" y="94" text-anchor="middle" fill="#A259FF" font-size="22" font-weight="bold" font-family="Courier New,monospace">100%</text>
<text x="200" y="107" text-anchor="middle" fill="#6A7A8C" font-size="7" font-family="Courier New,monospace">Infrastructure as Code</text>
<line x1="258" y1="80" x2="258" y2="110" stroke="#1A2535" stroke-width="0.8"/>
<text x="316" y="94" text-anchor="middle" fill="#00C7B7" font-size="22" font-weight="bold" font-family="Courier New,monospace">0</text>
<text x="316" y="107" text-anchor="middle" fill="#6A7A8C" font-size="7" font-family="Courier New,monospace">Console Clicks</text>

<line x1="24" y1="117" x2="376" y2="117" stroke="#1A2535" stroke-width="0.8"/>

<rect x="24" y="125" width="3" height="3" rx="1" fill="#FF9900"/>
<text x="34" y="130" fill="#C9D1D9" font-size="7.5" font-family="Courier New,monospace">Auto-scaled EC2 across 3 AZs behind Application Load Balancer</text>
<rect x="24" y="141" width="3" height="3" rx="1" fill="#FF9900"/>
<text x="34" y="146" fill="#C9D1D9" font-size="7.5" font-family="Courier New,monospace">Private RDS with Multi-AZ failover + AWS Secrets Manager</text>
<rect x="24" y="157" width="3" height="3" rx="1" fill="#FF9900"/>
<text x="34" y="162" fill="#C9D1D9" font-size="7.5" font-family="Courier New,monospace">Full IaC — zero console clicks, 100% reproducible deploys</text>

<line x1="24" y1="172" x2="376" y2="172" stroke="#1A2535" stroke-width="0.8"/>

<rect x="24"  y="180" width="70"  height="16" rx="7" fill="#7B42BC" fill-opacity="0.18" stroke="#7B42BC" stroke-width="0.7"/>
<text x="59"  y="191" text-anchor="middle" fill="#A259FF" font-size="7" font-family="Courier New,monospace">Terraform</text>
<rect x="102" y="180" width="92"  height="16" rx="7" fill="#2088FF" fill-opacity="0.12" stroke="#2088FF" stroke-width="0.7"/>
<text x="148" y="191" text-anchor="middle" fill="#2088FF" font-size="7" font-family="Courier New,monospace">GitHub Actions</text>
<rect x="202" y="180" width="80"  height="16" rx="7" fill="#FF9900" fill-opacity="0.12" stroke="#FF9900" stroke-width="0.7"/>
<text x="242" y="191" text-anchor="middle" fill="#FF9900" font-size="7" font-family="Courier New,monospace">EC2 · VPC · RDS</text>
<rect x="290" y="180" width="58"  height="16" rx="7" fill="#00C7B7" fill-opacity="0.12" stroke="#00C7B7" stroke-width="0.7"/>
<text x="319" y="191" text-anchor="middle" fill="#00C7B7" font-size="7" font-family="Courier New,monospace">Multi-AZ</text>

<text x="24" y="210" fill="#2A3A4C" font-size="6.5" font-family="Courier New,monospace" font-style="italic">Zero-touch provisioning · Full infra-as-code · CI/CD driven</text>


<!-- ═══════════════════════════════════════════
     CARD 2  —  22 DB Migration → Exadata@GCP
     x=408  y=8  w=384  h=206
═══════════════════════════════════════════ -->
<rect x="408" y="8" width="384" height="206" rx="10" fill="#0A0810" stroke="#1E2D40" stroke-width="1"/>
<rect x="408" y="8" width="384" height="3" rx="1.5" fill="url(#bar2)"/>

<text x="424" y="27" fill="#FF3333" font-size="7" font-weight="bold" font-family="Courier New,monospace" letter-spacing="1" opacity="0.9">PROJECT  02/02</text>
<rect x="718" y="16" width="62" height="14" rx="6" fill="#FF3333" fill-opacity="0.12" stroke="#FF3333" stroke-width="0.7" stroke-opacity="0.5"/>
<text x="749" y="26" text-anchor="middle" fill="#FF3333" font-size="6.5" font-family="Courier New,monospace">Oracle · OCI</text>

<text x="424" y="48" fill="#FFFFFF" font-size="13.5" font-weight="bold" font-family="Courier New,monospace">22 DB Migration → Exadata@GCP</text>
<text x="424" y="62" fill="#6A7A8C" font-size="7.5" font-family="Courier New,monospace">Oracle Exadata  ·  OCI Multicloud  ·  DBA + Network + App teams</text>

<line x1="424" y1="72" x2="776" y2="72" stroke="#1A2535" stroke-width="0.8"/>

<text x="485" y="94" text-anchor="middle" fill="#FF5733" font-size="22" font-weight="bold" font-family="Courier New,monospace">22</text>
<text x="485" y="107" text-anchor="middle" fill="#6A7A8C" font-size="7" font-family="Courier New,monospace">Databases Migrated</text>
<line x1="548" y1="80" x2="548" y2="110" stroke="#1A2535" stroke-width="0.8"/>
<text x="598" y="94" text-anchor="middle" fill="#FF3333" font-size="22" font-weight="bold" font-family="Courier New,monospace">300TB+</text>
<text x="598" y="107" text-anchor="middle" fill="#6A7A8C" font-size="7" font-family="Courier New,monospace">Combined Data Size</text>
<line x1="658" y1="80" x2="658" y2="110" stroke="#1A2535" stroke-width="0.8"/>
<text x="718" y="94" text-anchor="middle" fill="#00C7B7" font-size="22" font-weight="bold" font-family="Courier New,monospace">~0</text>
<text x="718" y="107" text-anchor="middle" fill="#6A7A8C" font-size="7" font-family="Courier New,monospace">Downtime Cutover</text>

<line x1="424" y1="117" x2="776" y2="117" stroke="#1A2535" stroke-width="0.8"/>

<rect x="424" y="125" width="3" height="3" rx="1" fill="#FF3333"/>
<text x="434" y="130" fill="#C9D1D9" font-size="7.5" font-family="Courier New,monospace">Migrated 22 on-prem Oracle databases to Exadata@GCP</text>
<rect x="424" y="141" width="3" height="3" rx="1" fill="#FF3333"/>
<text x="434" y="146" fill="#C9D1D9" font-size="7.5" font-family="Courier New,monospace">Near-zero downtime cutover strategy across all 22 DBs</text>
<rect x="424" y="157" width="3" height="3" rx="1" fill="#FF3333"/>
<text x="434" y="162" fill="#C9D1D9" font-size="7.5" font-family="Courier New,monospace">OCI multicloud bridge for hybrid-phase data continuity</text>

<line x1="424" y1="172" x2="776" y2="172" stroke="#1A2535" stroke-width="0.8"/>

<rect x="424" y="180" width="92"  height="16" rx="7" fill="#FF3333" fill-opacity="0.12" stroke="#FF3333" stroke-width="0.7"/>
<text x="470" y="191" text-anchor="middle" fill="#FF3333" font-size="7" font-family="Courier New,monospace">Oracle Exadata</text>
<rect x="524" y="180" width="86"  height="16" rx="7" fill="#F04020" fill-opacity="0.12" stroke="#F04020" stroke-width="0.7"/>
<text x="567" y="191" text-anchor="middle" fill="#F04020" font-size="7" font-family="Courier New,monospace">OCI Multicloud</text>
<rect x="618" y="180" width="74"  height="16" rx="7" fill="#4285F4" fill-opacity="0.12" stroke="#4285F4" stroke-width="0.7"/>
<text x="655" y="191" text-anchor="middle" fill="#4285F4" font-size="7" font-family="Courier New,monospace">GCP Exadata</text>
<rect x="700" y="180" width="72"  height="16" rx="7" fill="#00C7B7" fill-opacity="0.12" stroke="#00C7B7" stroke-width="0.7"/>
<text x="736" y="191" text-anchor="middle" fill="#00C7B7" font-size="7" font-family="Courier New,monospace">~Minimal Downtime</text>

<text x="424" y="210" fill="#2A3A4C" font-size="6.5" font-family="Courier New,monospace" font-style="italic">Enterprise-scale · Data-critical · Successfully delivered</text>

</svg>
