<svg xmlns="http://www.w3.org/2000/svg" width="800" height="124" viewBox="0 0 800 124" overflow="hidden">
  <defs>
    <style>
      .scroll { animation: scroll 36s linear infinite; }
      @keyframes scroll {
        from { transform: translateX(0px); }
        to   { transform: translateX(-1924px); }
      }
    </style>
    <linearGradient id="fl" x1="0" x2="1" y1="0" y2="0">
      <stop offset="0%"   stop-color="#0d1117" stop-opacity="1"/>
      <stop offset="100%" stop-color="#0d1117" stop-opacity="0"/>
    </linearGradient>
    <linearGradient id="fr" x1="0" x2="1" y1="0" y2="0">
      <stop offset="0%"   stop-color="#0d1117" stop-opacity="0"/>
      <stop offset="100%" stop-color="#0d1117" stop-opacity="1"/>
    </linearGradient>
  </defs>

  <!-- Background -->
  <rect width="800" height="124" fill="#0d1117"/>

  <!-- Ballast bed -->
  <rect y="103" width="800" height="21" fill="#0d1117"/>

  <!-- Ties -->
  <rect x="0" y="106" width="5" height="14" rx="1" fill="#21262d"/><rect x="22" y="106" width="5" height="14" rx="1" fill="#21262d"/><rect x="44" y="106" width="5" height="14" rx="1" fill="#21262d"/><rect x="66" y="106" width="5" height="14" rx="1" fill="#21262d"/><rect x="88" y="106" width="5" height="14" rx="1" fill="#21262d"/><rect x="110" y="106" width="5" height="14" rx="1" fill="#21262d"/><rect x="132" y="106" width="5" height="14" rx="1" fill="#21262d"/><rect x="154" y="106" width="5" height="14" rx="1" fill="#21262d"/><rect x="176" y="106" width="5" height="14" rx="1" fill="#21262d"/><rect x="198" y="106" width="5" height="14" rx="1" fill="#21262d"/><rect x="220" y="106" width="5" height="14" rx="1" fill="#21262d"/><rect x="242" y="106" width="5" height="14" rx="1" fill="#21262d"/><rect x="264" y="106" width="5" height="14" rx="1" fill="#21262d"/><rect x="286" y="106" width="5" height="14" rx="1" fill="#21262d"/><rect x="308" y="106" width="5" height="14" rx="1" fill="#21262d"/><rect x="330" y="106" width="5" height="14" rx="1" fill="#21262d"/><rect x="352" y="106" width="5" height="14" rx="1" fill="#21262d"/><rect x="374" y="106" width="5" height="14" rx="1" fill="#21262d"/><rect x="396" y="106" width="5" height="14" rx="1" fill="#21262d"/><rect x="418" y="106" width="5" height="14" rx="1" fill="#21262d"/><rect x="440" y="106" width="5" height="14" rx="1" fill="#21262d"/><rect x="462" y="106" width="5" height="14" rx="1" fill="#21262d"/><rect x="484" y="106" width="5" height="14" rx="1" fill="#21262d"/><rect x="506" y="106" width="5" height="14" rx="1" fill="#21262d"/><rect x="528" y="106" width="5" height="14" rx="1" fill="#21262d"/><rect x="550" y="106" width="5" height="14" rx="1" fill="#21262d"/><rect x="572" y="106" width="5" height="14" rx="1" fill="#21262d"/><rect x="594" y="106" width="5" height="14" rx="1" fill="#21262d"/><rect x="616" y="106" width="5" height="14" rx="1" fill="#21262d"/><rect x="638" y="106" width="5" height="14" rx="1" fill="#21262d"/><rect x="660" y="106" width="5" height="14" rx="1" fill="#21262d"/><rect x="682" y="106" width="5" height="14" rx="1" fill="#21262d"/><rect x="704" y="106" width="5" height="14" rx="1" fill="#21262d"/><rect x="726" y="106" width="5" height="14" rx="1" fill="#21262d"/><rect x="748" y="106" width="5" height="14" rx="1" fill="#21262d"/><rect x="770" y="106" width="5" height="14" rx="1" fill="#21262d"/><rect x="792" y="106" width="5" height="14" rx="1" fill="#21262d"/>

  <!-- Rails -->
  <rect y="107" width="800" height="4" rx="1" fill="#484f58"/>
  <rect y="115" width="800" height="3" rx="1" fill="#30363d"/>

  <!-- Train cars -->
  <g class="scroll">

    <!-- Terraform -->
    <rect x="7" y="6" width="130" height="88" rx="9" fill="#000" fill-opacity="0.25"/>
    <rect x="5" y="4" width="130" height="88" rx="9" fill="#7B42BC"/>
    <rect x="5" y="4" width="130" height="20" rx="9" fill="rgba(255,255,255,0.13)"/>
    <rect x="5" y="15" width="130" height="9" fill="rgba(255,255,255,0.13)"/>
    <rect x="5" y="72" width="130" height="20" rx="9" fill="rgba(0,0,0,0.2)"/>
    <rect x="5" y="72" width="130" height="10" fill="rgba(0,0,0,0.2)"/>
    <circle cx="70" cy="35" r="19" fill="#9B62DC" fill-opacity="0.9"/>
    <circle cx="70" cy="35" r="16" fill="rgba(255,255,255,0.15)"/>
    <text x="70" y="40" text-anchor="middle" fill="white" font-size="11" font-weight="bold" font-family="'Courier New',Courier,monospace">TF</text>
    <text x="70" y="70" text-anchor="middle" fill="white" font-size="10" font-weight="bold" font-family="'Courier New',Courier,monospace">Terraform</text>
    <text x="70" y="84" text-anchor="middle" fill="rgba(255,255,255,0.7)" font-size="7" font-family="'Courier New',Courier,monospace">Infrastructure as Code</text>
    <circle cx="27" cy="107" r="11" fill="#161b22" stroke="#4d5566" stroke-width="2"/>
    <circle cx="27" cy="107" r="3.5" fill="#9B62DC" fill-opacity="0.7"/>
    <circle cx="113" cy="107" r="11" fill="#161b22" stroke="#4d5566" stroke-width="2"/>
    <circle cx="113" cy="107" r="3.5" fill="#9B62DC" fill-opacity="0.7"/>
    <line x1="135" y1="107" x2="153" y2="107" stroke="#30363d" stroke-width="2"/>
    <!-- Terraform -->
    <rect x="1931" y="6" width="130" height="88" rx="9" fill="#000" fill-opacity="0.25"/>
    <rect x="1929" y="4" width="130" height="88" rx="9" fill="#7B42BC"/>
    <rect x="1929" y="4" width="130" height="20" rx="9" fill="rgba(255,255,255,0.13)"/>
    <rect x="1929" y="15" width="130" height="9" fill="rgba(255,255,255,0.13)"/>
    <rect x="1929" y="72" width="130" height="20" rx="9" fill="rgba(0,0,0,0.2)"/>
    <rect x="1929" y="72" width="130" height="10" fill="rgba(0,0,0,0.2)"/>
    <circle cx="1994" cy="35" r="19" fill="#9B62DC" fill-opacity="0.9"/>
    <circle cx="1994" cy="35" r="16" fill="rgba(255,255,255,0.15)"/>
    <text x="1994" y="40" text-anchor="middle" fill="white" font-size="11" font-weight="bold" font-family="'Courier New',Courier,monospace">TF</text>
    <text x="1994" y="70" text-anchor="middle" fill="white" font-size="10" font-weight="bold" font-family="'Courier New',Courier,monospace">Terraform</text>
    <text x="1994" y="84" text-anchor="middle" fill="rgba(255,255,255,0.7)" font-size="7" font-family="'Courier New',Courier,monospace">Infrastructure as Code</text>
    <circle cx="1951" cy="107" r="11" fill="#161b22" stroke="#4d5566" stroke-width="2"/>
    <circle cx="1951" cy="107" r="3.5" fill="#9B62DC" fill-opacity="0.7"/>
    <circle cx="2037" cy="107" r="11" fill="#161b22" stroke="#4d5566" stroke-width="2"/>
    <circle cx="2037" cy="107" r="3.5" fill="#9B62DC" fill-opacity="0.7"/>
    <line x1="2059" y1="107" x2="2077" y2="107" stroke="#30363d" stroke-width="2"/>
    <!-- AWS -->
    <rect x="155" y="6" width="130" height="88" rx="9" fill="#000" fill-opacity="0.25"/>
    <rect x="153" y="4" width="130" height="88" rx="9" fill="#1A1A1A"/>
    <rect x="153" y="4" width="130" height="20" rx="9" fill="rgba(255,255,255,0.13)"/>
    <rect x="153" y="15" width="130" height="9" fill="rgba(255,255,255,0.13)"/>
    <rect x="153" y="72" width="130" height="20" rx="9" fill="rgba(0,0,0,0.2)"/>
    <rect x="153" y="72" width="130" height="10" fill="rgba(0,0,0,0.2)"/>
    <circle cx="218" cy="35" r="19" fill="#FF9900" fill-opacity="0.9"/>
    <circle cx="218" cy="35" r="16" fill="rgba(255,255,255,0.15)"/>
    <text x="218" y="40" text-anchor="middle" fill="white" font-size="11" font-weight="bold" font-family="'Courier New',Courier,monospace">AWS</text>
    <text x="218" y="70" text-anchor="middle" fill="white" font-size="10" font-weight="bold" font-family="'Courier New',Courier,monospace">AWS</text>
    <text x="218" y="84" text-anchor="middle" fill="rgba(255,255,255,0.7)" font-size="7" font-family="'Courier New',Courier,monospace">EC2 · VPC · RDS · IAM</text>
    <circle cx="175" cy="107" r="11" fill="#161b22" stroke="#4d5566" stroke-width="2"/>
    <circle cx="175" cy="107" r="3.5" fill="#FF9900" fill-opacity="0.7"/>
    <circle cx="261" cy="107" r="11" fill="#161b22" stroke="#4d5566" stroke-width="2"/>
    <circle cx="261" cy="107" r="3.5" fill="#FF9900" fill-opacity="0.7"/>
    <line x1="283" y1="107" x2="301" y2="107" stroke="#30363d" stroke-width="2"/>
    <!-- AWS -->
    <rect x="2079" y="6" width="130" height="88" rx="9" fill="#000" fill-opacity="0.25"/>
    <rect x="2077" y="4" width="130" height="88" rx="9" fill="#1A1A1A"/>
    <rect x="2077" y="4" width="130" height="20" rx="9" fill="rgba(255,255,255,0.13)"/>
    <rect x="2077" y="15" width="130" height="9" fill="rgba(255,255,255,0.13)"/>
    <rect x="2077" y="72" width="130" height="20" rx="9" fill="rgba(0,0,0,0.2)"/>
    <rect x="2077" y="72" width="130" height="10" fill="rgba(0,0,0,0.2)"/>
    <circle cx="2142" cy="35" r="19" fill="#FF9900" fill-opacity="0.9"/>
    <circle cx="2142" cy="35" r="16" fill="rgba(255,255,255,0.15)"/>
    <text x="2142" y="40" text-anchor="middle" fill="white" font-size="11" font-weight="bold" font-family="'Courier New',Courier,monospace">AWS</text>
    <text x="2142" y="70" text-anchor="middle" fill="white" font-size="10" font-weight="bold" font-family="'Courier New',Courier,monospace">AWS</text>
    <text x="2142" y="84" text-anchor="middle" fill="rgba(255,255,255,0.7)" font-size="7" font-family="'Courier New',Courier,monospace">EC2 · VPC · RDS · IAM</text>
    <circle cx="2099" cy="107" r="11" fill="#161b22" stroke="#4d5566" stroke-width="2"/>
    <circle cx="2099" cy="107" r="3.5" fill="#FF9900" fill-opacity="0.7"/>
    <circle cx="2185" cy="107" r="11" fill="#161b22" stroke="#4d5566" stroke-width="2"/>
    <circle cx="2185" cy="107" r="3.5" fill="#FF9900" fill-opacity="0.7"/>
    <line x1="2207" y1="107" x2="2225" y2="107" stroke="#30363d" stroke-width="2"/>
    <!-- GitHub Actions -->
    <rect x="303" y="6" width="130" height="88" rx="9" fill="#000" fill-opacity="0.25"/>
    <rect x="301" y="4" width="130" height="88" rx="9" fill="#1F6FEB"/>
    <rect x="301" y="4" width="130" height="20" rx="9" fill="rgba(255,255,255,0.13)"/>
    <rect x="301" y="15" width="130" height="9" fill="rgba(255,255,255,0.13)"/>
    <rect x="301" y="72" width="130" height="20" rx="9" fill="rgba(0,0,0,0.2)"/>
    <rect x="301" y="72" width="130" height="10" fill="rgba(0,0,0,0.2)"/>
    <circle cx="366" cy="35" r="19" fill="#4D9FFF" fill-opacity="0.9"/>
    <circle cx="366" cy="35" r="16" fill="rgba(255,255,255,0.15)"/>
    <text x="366" y="40" text-anchor="middle" fill="white" font-size="11" font-weight="bold" font-family="'Courier New',Courier,monospace">GHA</text>
    <text x="366" y="70" text-anchor="middle" fill="white" font-size="10" font-weight="bold" font-family="'Courier New',Courier,monospace">GitHub Actions</text>
    <text x="366" y="84" text-anchor="middle" fill="rgba(255,255,255,0.7)" font-size="7" font-family="'Courier New',Courier,monospace">CI/CD Pipelines</text>
    <circle cx="323" cy="107" r="11" fill="#161b22" stroke="#4d5566" stroke-width="2"/>
    <circle cx="323" cy="107" r="3.5" fill="#4D9FFF" fill-opacity="0.7"/>
    <circle cx="409" cy="107" r="11" fill="#161b22" stroke="#4d5566" stroke-width="2"/>
    <circle cx="409" cy="107" r="3.5" fill="#4D9FFF" fill-opacity="0.7"/>
    <line x1="431" y1="107" x2="449" y2="107" stroke="#30363d" stroke-width="2"/>
    <!-- GitHub Actions -->
    <rect x="2227" y="6" width="130" height="88" rx="9" fill="#000" fill-opacity="0.25"/>
    <rect x="2225" y="4" width="130" height="88" rx="9" fill="#1F6FEB"/>
    <rect x="2225" y="4" width="130" height="20" rx="9" fill="rgba(255,255,255,0.13)"/>
    <rect x="2225" y="15" width="130" height="9" fill="rgba(255,255,255,0.13)"/>
    <rect x="2225" y="72" width="130" height="20" rx="9" fill="rgba(0,0,0,0.2)"/>
    <rect x="2225" y="72" width="130" height="10" fill="rgba(0,0,0,0.2)"/>
    <circle cx="2290" cy="35" r="19" fill="#4D9FFF" fill-opacity="0.9"/>
    <circle cx="2290" cy="35" r="16" fill="rgba(255,255,255,0.15)"/>
    <text x="2290" y="40" text-anchor="middle" fill="white" font-size="11" font-weight="bold" font-family="'Courier New',Courier,monospace">GHA</text>
    <text x="2290" y="70" text-anchor="middle" fill="white" font-size="10" font-weight="bold" font-family="'Courier New',Courier,monospace">GitHub Actions</text>
    <text x="2290" y="84" text-anchor="middle" fill="rgba(255,255,255,0.7)" font-size="7" font-family="'Courier New',Courier,monospace">CI/CD Pipelines</text>
    <circle cx="2247" cy="107" r="11" fill="#161b22" stroke="#4d5566" stroke-width="2"/>
    <circle cx="2247" cy="107" r="3.5" fill="#4D9FFF" fill-opacity="0.7"/>
    <circle cx="2333" cy="107" r="11" fill="#161b22" stroke="#4d5566" stroke-width="2"/>
    <circle cx="2333" cy="107" r="3.5" fill="#4D9FFF" fill-opacity="0.7"/>
    <line x1="2355" y1="107" x2="2373" y2="107" stroke="#30363d" stroke-width="2"/>
    <!-- Git & GitHub -->
    <rect x="451" y="6" width="130" height="88" rx="9" fill="#000" fill-opacity="0.25"/>
    <rect x="449" y="4" width="130" height="88" rx="9" fill="#24292e"/>
    <rect x="449" y="4" width="130" height="20" rx="9" fill="rgba(255,255,255,0.13)"/>
    <rect x="449" y="15" width="130" height="9" fill="rgba(255,255,255,0.13)"/>
    <rect x="449" y="72" width="130" height="20" rx="9" fill="rgba(0,0,0,0.2)"/>
    <rect x="449" y="72" width="130" height="10" fill="rgba(0,0,0,0.2)"/>
    <circle cx="514" cy="35" r="19" fill="#F05032" fill-opacity="0.9"/>
    <circle cx="514" cy="35" r="16" fill="rgba(255,255,255,0.15)"/>
    <text x="514" y="40" text-anchor="middle" fill="white" font-size="11" font-weight="bold" font-family="'Courier New',Courier,monospace">GIT</text>
    <text x="514" y="70" text-anchor="middle" fill="white" font-size="10" font-weight="bold" font-family="'Courier New',Courier,monospace">Git & GitHub</text>
    <text x="514" y="84" text-anchor="middle" fill="rgba(255,255,255,0.7)" font-size="7" font-family="'Courier New',Courier,monospace">Version Control</text>
    <circle cx="471" cy="107" r="11" fill="#161b22" stroke="#4d5566" stroke-width="2"/>
    <circle cx="471" cy="107" r="3.5" fill="#F05032" fill-opacity="0.7"/>
    <circle cx="557" cy="107" r="11" fill="#161b22" stroke="#4d5566" stroke-width="2"/>
    <circle cx="557" cy="107" r="3.5" fill="#F05032" fill-opacity="0.7"/>
    <line x1="579" y1="107" x2="597" y2="107" stroke="#30363d" stroke-width="2"/>
    <!-- Git & GitHub -->
    <rect x="2375" y="6" width="130" height="88" rx="9" fill="#000" fill-opacity="0.25"/>
    <rect x="2373" y="4" width="130" height="88" rx="9" fill="#24292e"/>
    <rect x="2373" y="4" width="130" height="20" rx="9" fill="rgba(255,255,255,0.13)"/>
    <rect x="2373" y="15" width="130" height="9" fill="rgba(255,255,255,0.13)"/>
    <rect x="2373" y="72" width="130" height="20" rx="9" fill="rgba(0,0,0,0.2)"/>
    <rect x="2373" y="72" width="130" height="10" fill="rgba(0,0,0,0.2)"/>
    <circle cx="2438" cy="35" r="19" fill="#F05032" fill-opacity="0.9"/>
    <circle cx="2438" cy="35" r="16" fill="rgba(255,255,255,0.15)"/>
    <text x="2438" y="40" text-anchor="middle" fill="white" font-size="11" font-weight="bold" font-family="'Courier New',Courier,monospace">GIT</text>
    <text x="2438" y="70" text-anchor="middle" fill="white" font-size="10" font-weight="bold" font-family="'Courier New',Courier,monospace">Git & GitHub</text>
    <text x="2438" y="84" text-anchor="middle" fill="rgba(255,255,255,0.7)" font-size="7" font-family="'Courier New',Courier,monospace">Version Control</text>
    <circle cx="2395" cy="107" r="11" fill="#161b22" stroke="#4d5566" stroke-width="2"/>
    <circle cx="2395" cy="107" r="3.5" fill="#F05032" fill-opacity="0.7"/>
    <circle cx="2481" cy="107" r="11" fill="#161b22" stroke="#4d5566" stroke-width="2"/>
    <circle cx="2481" cy="107" r="3.5" fill="#F05032" fill-opacity="0.7"/>
    <line x1="2503" y1="107" x2="2521" y2="107" stroke="#30363d" stroke-width="2"/>
    <!-- Oracle Cloud -->
    <rect x="599" y="6" width="130" height="88" rx="9" fill="#000" fill-opacity="0.25"/>
    <rect x="597" y="4" width="130" height="88" rx="9" fill="#C74634"/>
    <rect x="597" y="4" width="130" height="20" rx="9" fill="rgba(255,255,255,0.13)"/>
    <rect x="597" y="15" width="130" height="9" fill="rgba(255,255,255,0.13)"/>
    <rect x="597" y="72" width="130" height="20" rx="9" fill="rgba(0,0,0,0.2)"/>
    <rect x="597" y="72" width="130" height="10" fill="rgba(0,0,0,0.2)"/>
    <circle cx="662" cy="35" r="19" fill="#E05040" fill-opacity="0.9"/>
    <circle cx="662" cy="35" r="16" fill="rgba(255,255,255,0.15)"/>
    <text x="662" y="40" text-anchor="middle" fill="white" font-size="11" font-weight="bold" font-family="'Courier New',Courier,monospace">OCI</text>
    <text x="662" y="70" text-anchor="middle" fill="white" font-size="10" font-weight="bold" font-family="'Courier New',Courier,monospace">Oracle Cloud</text>
    <text x="662" y="84" text-anchor="middle" fill="rgba(255,255,255,0.7)" font-size="7" font-family="'Courier New',Courier,monospace">Hub & Spoke · Compute</text>
    <circle cx="619" cy="107" r="11" fill="#161b22" stroke="#4d5566" stroke-width="2"/>
    <circle cx="619" cy="107" r="3.5" fill="#E05040" fill-opacity="0.7"/>
    <circle cx="705" cy="107" r="11" fill="#161b22" stroke="#4d5566" stroke-width="2"/>
    <circle cx="705" cy="107" r="3.5" fill="#E05040" fill-opacity="0.7"/>
    <line x1="727" y1="107" x2="745" y2="107" stroke="#30363d" stroke-width="2"/>
    <!-- Oracle Cloud -->
    <rect x="2523" y="6" width="130" height="88" rx="9" fill="#000" fill-opacity="0.25"/>
    <rect x="2521" y="4" width="130" height="88" rx="9" fill="#C74634"/>
    <rect x="2521" y="4" width="130" height="20" rx="9" fill="rgba(255,255,255,0.13)"/>
    <rect x="2521" y="15" width="130" height="9" fill="rgba(255,255,255,0.13)"/>
    <rect x="2521" y="72" width="130" height="20" rx="9" fill="rgba(0,0,0,0.2)"/>
    <rect x="2521" y="72" width="130" height="10" fill="rgba(0,0,0,0.2)"/>
    <circle cx="2586" cy="35" r="19" fill="#E05040" fill-opacity="0.9"/>
    <circle cx="2586" cy="35" r="16" fill="rgba(255,255,255,0.15)"/>
    <text x="2586" y="40" text-anchor="middle" fill="white" font-size="11" font-weight="bold" font-family="'Courier New',Courier,monospace">OCI</text>
    <text x="2586" y="70" text-anchor="middle" fill="white" font-size="10" font-weight="bold" font-family="'Courier New',Courier,monospace">Oracle Cloud</text>
    <text x="2586" y="84" text-anchor="middle" fill="rgba(255,255,255,0.7)" font-size="7" font-family="'Courier New',Courier,monospace">Hub & Spoke · Compute</text>
    <circle cx="2543" cy="107" r="11" fill="#161b22" stroke="#4d5566" stroke-width="2"/>
    <circle cx="2543" cy="107" r="3.5" fill="#E05040" fill-opacity="0.7"/>
    <circle cx="2629" cy="107" r="11" fill="#161b22" stroke="#4d5566" stroke-width="2"/>
    <circle cx="2629" cy="107" r="3.5" fill="#E05040" fill-opacity="0.7"/>
    <line x1="2651" y1="107" x2="2669" y2="107" stroke="#30363d" stroke-width="2"/>
    <!-- OCI Networking -->
    <rect x="747" y="6" width="130" height="88" rx="9" fill="#000" fill-opacity="0.25"/>
    <rect x="745" y="4" width="130" height="88" rx="9" fill="#005F6B"/>
    <rect x="745" y="4" width="130" height="20" rx="9" fill="rgba(255,255,255,0.13)"/>
    <rect x="745" y="15" width="130" height="9" fill="rgba(255,255,255,0.13)"/>
    <rect x="745" y="72" width="130" height="20" rx="9" fill="rgba(0,0,0,0.2)"/>
    <rect x="745" y="72" width="130" height="10" fill="rgba(0,0,0,0.2)"/>
    <circle cx="810" cy="35" r="19" fill="#00C8C8" fill-opacity="0.9"/>
    <circle cx="810" cy="35" r="16" fill="rgba(255,255,255,0.15)"/>
    <text x="810" y="40" text-anchor="middle" fill="white" font-size="11" font-weight="bold" font-family="'Courier New',Courier,monospace">NET</text>
    <text x="810" y="70" text-anchor="middle" fill="white" font-size="10" font-weight="bold" font-family="'Courier New',Courier,monospace">OCI Networking</text>
    <text x="810" y="84" text-anchor="middle" fill="rgba(255,255,255,0.7)" font-size="7" font-family="'Courier New',Courier,monospace">VCN · DRG · FastConnect</text>
    <circle cx="767" cy="107" r="11" fill="#161b22" stroke="#4d5566" stroke-width="2"/>
    <circle cx="767" cy="107" r="3.5" fill="#00C8C8" fill-opacity="0.7"/>
    <circle cx="853" cy="107" r="11" fill="#161b22" stroke="#4d5566" stroke-width="2"/>
    <circle cx="853" cy="107" r="3.5" fill="#00C8C8" fill-opacity="0.7"/>
    <line x1="875" y1="107" x2="893" y2="107" stroke="#30363d" stroke-width="2"/>
    <!-- OCI Networking -->
    <rect x="2671" y="6" width="130" height="88" rx="9" fill="#000" fill-opacity="0.25"/>
    <rect x="2669" y="4" width="130" height="88" rx="9" fill="#005F6B"/>
    <rect x="2669" y="4" width="130" height="20" rx="9" fill="rgba(255,255,255,0.13)"/>
    <rect x="2669" y="15" width="130" height="9" fill="rgba(255,255,255,0.13)"/>
    <rect x="2669" y="72" width="130" height="20" rx="9" fill="rgba(0,0,0,0.2)"/>
    <rect x="2669" y="72" width="130" height="10" fill="rgba(0,0,0,0.2)"/>
    <circle cx="2734" cy="35" r="19" fill="#00C8C8" fill-opacity="0.9"/>
    <circle cx="2734" cy="35" r="16" fill="rgba(255,255,255,0.15)"/>
    <text x="2734" y="40" text-anchor="middle" fill="white" font-size="11" font-weight="bold" font-family="'Courier New',Courier,monospace">NET</text>
    <text x="2734" y="70" text-anchor="middle" fill="white" font-size="10" font-weight="bold" font-family="'Courier New',Courier,monospace">OCI Networking</text>
    <text x="2734" y="84" text-anchor="middle" fill="rgba(255,255,255,0.7)" font-size="7" font-family="'Courier New',Courier,monospace">VCN · DRG · FastConnect</text>
    <circle cx="2691" cy="107" r="11" fill="#161b22" stroke="#4d5566" stroke-width="2"/>
    <circle cx="2691" cy="107" r="3.5" fill="#00C8C8" fill-opacity="0.7"/>
    <circle cx="2777" cy="107" r="11" fill="#161b22" stroke="#4d5566" stroke-width="2"/>
    <circle cx="2777" cy="107" r="3.5" fill="#00C8C8" fill-opacity="0.7"/>
    <line x1="2799" y1="107" x2="2817" y2="107" stroke="#30363d" stroke-width="2"/>
    <!-- IAM & Security -->
    <rect x="895" y="6" width="130" height="88" rx="9" fill="#000" fill-opacity="0.25"/>
    <rect x="893" y="4" width="130" height="88" rx="9" fill="#0052CC"/>
    <rect x="893" y="4" width="130" height="20" rx="9" fill="rgba(255,255,255,0.13)"/>
    <rect x="893" y="15" width="130" height="9" fill="rgba(255,255,255,0.13)"/>
    <rect x="893" y="72" width="130" height="20" rx="9" fill="rgba(0,0,0,0.2)"/>
    <rect x="893" y="72" width="130" height="10" fill="rgba(0,0,0,0.2)"/>
    <circle cx="958" cy="35" r="19" fill="#4088FF" fill-opacity="0.9"/>
    <circle cx="958" cy="35" r="16" fill="rgba(255,255,255,0.15)"/>
    <text x="958" y="40" text-anchor="middle" fill="white" font-size="11" font-weight="bold" font-family="'Courier New',Courier,monospace">IAM</text>
    <text x="958" y="70" text-anchor="middle" fill="white" font-size="10" font-weight="bold" font-family="'Courier New',Courier,monospace">IAM & Security</text>
    <text x="958" y="84" text-anchor="middle" fill="rgba(255,255,255,0.7)" font-size="7" font-family="'Courier New',Courier,monospace">Policies · Vault · Keys</text>
    <circle cx="915" cy="107" r="11" fill="#161b22" stroke="#4d5566" stroke-width="2"/>
    <circle cx="915" cy="107" r="3.5" fill="#4088FF" fill-opacity="0.7"/>
    <circle cx="1001" cy="107" r="11" fill="#161b22" stroke="#4d5566" stroke-width="2"/>
    <circle cx="1001" cy="107" r="3.5" fill="#4088FF" fill-opacity="0.7"/>
    <line x1="1023" y1="107" x2="1041" y2="107" stroke="#30363d" stroke-width="2"/>
    <!-- IAM & Security -->
    <rect x="2819" y="6" width="130" height="88" rx="9" fill="#000" fill-opacity="0.25"/>
    <rect x="2817" y="4" width="130" height="88" rx="9" fill="#0052CC"/>
    <rect x="2817" y="4" width="130" height="20" rx="9" fill="rgba(255,255,255,0.13)"/>
    <rect x="2817" y="15" width="130" height="9" fill="rgba(255,255,255,0.13)"/>
    <rect x="2817" y="72" width="130" height="20" rx="9" fill="rgba(0,0,0,0.2)"/>
    <rect x="2817" y="72" width="130" height="10" fill="rgba(0,0,0,0.2)"/>
    <circle cx="2882" cy="35" r="19" fill="#4088FF" fill-opacity="0.9"/>
    <circle cx="2882" cy="35" r="16" fill="rgba(255,255,255,0.15)"/>
    <text x="2882" y="40" text-anchor="middle" fill="white" font-size="11" font-weight="bold" font-family="'Courier New',Courier,monospace">IAM</text>
    <text x="2882" y="70" text-anchor="middle" fill="white" font-size="10" font-weight="bold" font-family="'Courier New',Courier,monospace">IAM & Security</text>
    <text x="2882" y="84" text-anchor="middle" fill="rgba(255,255,255,0.7)" font-size="7" font-family="'Courier New',Courier,monospace">Policies · Vault · Keys</text>
    <circle cx="2839" cy="107" r="11" fill="#161b22" stroke="#4d5566" stroke-width="2"/>
    <circle cx="2839" cy="107" r="3.5" fill="#4088FF" fill-opacity="0.7"/>
    <circle cx="2925" cy="107" r="11" fill="#161b22" stroke="#4d5566" stroke-width="2"/>
    <circle cx="2925" cy="107" r="3.5" fill="#4088FF" fill-opacity="0.7"/>
    <line x1="2947" y1="107" x2="2965" y2="107" stroke="#30363d" stroke-width="2"/>
    <!-- Oracle DB -->
    <rect x="1043" y="6" width="130" height="88" rx="9" fill="#000" fill-opacity="0.25"/>
    <rect x="1041" y="4" width="130" height="88" rx="9" fill="#A80000"/>
    <rect x="1041" y="4" width="130" height="20" rx="9" fill="rgba(255,255,255,0.13)"/>
    <rect x="1041" y="15" width="130" height="9" fill="rgba(255,255,255,0.13)"/>
    <rect x="1041" y="72" width="130" height="20" rx="9" fill="rgba(0,0,0,0.2)"/>
    <rect x="1041" y="72" width="130" height="10" fill="rgba(0,0,0,0.2)"/>
    <circle cx="1106" cy="35" r="19" fill="#FF4444" fill-opacity="0.9"/>
    <circle cx="1106" cy="35" r="16" fill="rgba(255,255,255,0.15)"/>
    <text x="1106" y="40" text-anchor="middle" fill="white" font-size="11" font-weight="bold" font-family="'Courier New',Courier,monospace">ODB</text>
    <text x="1106" y="70" text-anchor="middle" fill="white" font-size="10" font-weight="bold" font-family="'Courier New',Courier,monospace">Oracle DB</text>
    <text x="1106" y="84" text-anchor="middle" fill="rgba(255,255,255,0.7)" font-size="7" font-family="'Courier New',Courier,monospace">Enterprise RDBMS</text>
    <circle cx="1063" cy="107" r="11" fill="#161b22" stroke="#4d5566" stroke-width="2"/>
    <circle cx="1063" cy="107" r="3.5" fill="#FF4444" fill-opacity="0.7"/>
    <circle cx="1149" cy="107" r="11" fill="#161b22" stroke="#4d5566" stroke-width="2"/>
    <circle cx="1149" cy="107" r="3.5" fill="#FF4444" fill-opacity="0.7"/>
    <line x1="1171" y1="107" x2="1189" y2="107" stroke="#30363d" stroke-width="2"/>
    <!-- Oracle DB -->
    <rect x="2967" y="6" width="130" height="88" rx="9" fill="#000" fill-opacity="0.25"/>
    <rect x="2965" y="4" width="130" height="88" rx="9" fill="#A80000"/>
    <rect x="2965" y="4" width="130" height="20" rx="9" fill="rgba(255,255,255,0.13)"/>
    <rect x="2965" y="15" width="130" height="9" fill="rgba(255,255,255,0.13)"/>
    <rect x="2965" y="72" width="130" height="20" rx="9" fill="rgba(0,0,0,0.2)"/>
    <rect x="2965" y="72" width="130" height="10" fill="rgba(0,0,0,0.2)"/>
    <circle cx="3030" cy="35" r="19" fill="#FF4444" fill-opacity="0.9"/>
    <circle cx="3030" cy="35" r="16" fill="rgba(255,255,255,0.15)"/>
    <text x="3030" y="40" text-anchor="middle" fill="white" font-size="11" font-weight="bold" font-family="'Courier New',Courier,monospace">ODB</text>
    <text x="3030" y="70" text-anchor="middle" fill="white" font-size="10" font-weight="bold" font-family="'Courier New',Courier,monospace">Oracle DB</text>
    <text x="3030" y="84" text-anchor="middle" fill="rgba(255,255,255,0.7)" font-size="7" font-family="'Courier New',Courier,monospace">Enterprise RDBMS</text>
    <circle cx="2987" cy="107" r="11" fill="#161b22" stroke="#4d5566" stroke-width="2"/>
    <circle cx="2987" cy="107" r="3.5" fill="#FF4444" fill-opacity="0.7"/>
    <circle cx="3073" cy="107" r="11" fill="#161b22" stroke="#4d5566" stroke-width="2"/>
    <circle cx="3073" cy="107" r="3.5" fill="#FF4444" fill-opacity="0.7"/>
    <line x1="3095" y1="107" x2="3113" y2="107" stroke="#30363d" stroke-width="2"/>
    <!-- Exadata -->
    <rect x="1191" y="6" width="130" height="88" rx="9" fill="#000" fill-opacity="0.25"/>
    <rect x="1189" y="4" width="130" height="88" rx="9" fill="#6B0000"/>
    <rect x="1189" y="4" width="130" height="20" rx="9" fill="rgba(255,255,255,0.13)"/>
    <rect x="1189" y="15" width="130" height="9" fill="rgba(255,255,255,0.13)"/>
    <rect x="1189" y="72" width="130" height="20" rx="9" fill="rgba(0,0,0,0.2)"/>
    <rect x="1189" y="72" width="130" height="10" fill="rgba(0,0,0,0.2)"/>
    <circle cx="1254" cy="35" r="19" fill="#CC3333" fill-opacity="0.9"/>
    <circle cx="1254" cy="35" r="16" fill="rgba(255,255,255,0.15)"/>
    <text x="1254" y="40" text-anchor="middle" fill="white" font-size="11" font-weight="bold" font-family="'Courier New',Courier,monospace">EXA</text>
    <text x="1254" y="70" text-anchor="middle" fill="white" font-size="10" font-weight="bold" font-family="'Courier New',Courier,monospace">Exadata</text>
    <text x="1254" y="84" text-anchor="middle" fill="rgba(255,255,255,0.7)" font-size="7" font-family="'Courier New',Courier,monospace">300TB+ Migrated</text>
    <circle cx="1211" cy="107" r="11" fill="#161b22" stroke="#4d5566" stroke-width="2"/>
    <circle cx="1211" cy="107" r="3.5" fill="#CC3333" fill-opacity="0.7"/>
    <circle cx="1297" cy="107" r="11" fill="#161b22" stroke="#4d5566" stroke-width="2"/>
    <circle cx="1297" cy="107" r="3.5" fill="#CC3333" fill-opacity="0.7"/>
    <line x1="1319" y1="107" x2="1337" y2="107" stroke="#30363d" stroke-width="2"/>
    <!-- Exadata -->
    <rect x="3115" y="6" width="130" height="88" rx="9" fill="#000" fill-opacity="0.25"/>
    <rect x="3113" y="4" width="130" height="88" rx="9" fill="#6B0000"/>
    <rect x="3113" y="4" width="130" height="20" rx="9" fill="rgba(255,255,255,0.13)"/>
    <rect x="3113" y="15" width="130" height="9" fill="rgba(255,255,255,0.13)"/>
    <rect x="3113" y="72" width="130" height="20" rx="9" fill="rgba(0,0,0,0.2)"/>
    <rect x="3113" y="72" width="130" height="10" fill="rgba(0,0,0,0.2)"/>
    <circle cx="3178" cy="35" r="19" fill="#CC3333" fill-opacity="0.9"/>
    <circle cx="3178" cy="35" r="16" fill="rgba(255,255,255,0.15)"/>
    <text x="3178" y="40" text-anchor="middle" fill="white" font-size="11" font-weight="bold" font-family="'Courier New',Courier,monospace">EXA</text>
    <text x="3178" y="70" text-anchor="middle" fill="white" font-size="10" font-weight="bold" font-family="'Courier New',Courier,monospace">Exadata</text>
    <text x="3178" y="84" text-anchor="middle" fill="rgba(255,255,255,0.7)" font-size="7" font-family="'Courier New',Courier,monospace">300TB+ Migrated</text>
    <circle cx="3135" cy="107" r="11" fill="#161b22" stroke="#4d5566" stroke-width="2"/>
    <circle cx="3135" cy="107" r="3.5" fill="#CC3333" fill-opacity="0.7"/>
    <circle cx="3221" cy="107" r="11" fill="#161b22" stroke="#4d5566" stroke-width="2"/>
    <circle cx="3221" cy="107" r="3.5" fill="#CC3333" fill-opacity="0.7"/>
    <line x1="3243" y1="107" x2="3261" y2="107" stroke="#30363d" stroke-width="2"/>
    <!-- OCI ATP -->
    <rect x="1339" y="6" width="130" height="88" rx="9" fill="#000" fill-opacity="0.25"/>
    <rect x="1337" y="4" width="130" height="88" rx="9" fill="#5B2D8E"/>
    <rect x="1337" y="4" width="130" height="20" rx="9" fill="rgba(255,255,255,0.13)"/>
    <rect x="1337" y="15" width="130" height="9" fill="rgba(255,255,255,0.13)"/>
    <rect x="1337" y="72" width="130" height="20" rx="9" fill="rgba(0,0,0,0.2)"/>
    <rect x="1337" y="72" width="130" height="10" fill="rgba(0,0,0,0.2)"/>
    <circle cx="1402" cy="35" r="19" fill="#9B5DDE" fill-opacity="0.9"/>
    <circle cx="1402" cy="35" r="16" fill="rgba(255,255,255,0.15)"/>
    <text x="1402" y="40" text-anchor="middle" fill="white" font-size="11" font-weight="bold" font-family="'Courier New',Courier,monospace">ATP</text>
    <text x="1402" y="70" text-anchor="middle" fill="white" font-size="10" font-weight="bold" font-family="'Courier New',Courier,monospace">OCI ATP</text>
    <text x="1402" y="84" text-anchor="middle" fill="rgba(255,255,255,0.7)" font-size="7" font-family="'Courier New',Courier,monospace">Autonomous Database</text>
    <circle cx="1359" cy="107" r="11" fill="#161b22" stroke="#4d5566" stroke-width="2"/>
    <circle cx="1359" cy="107" r="3.5" fill="#9B5DDE" fill-opacity="0.7"/>
    <circle cx="1445" cy="107" r="11" fill="#161b22" stroke="#4d5566" stroke-width="2"/>
    <circle cx="1445" cy="107" r="3.5" fill="#9B5DDE" fill-opacity="0.7"/>
    <line x1="1467" y1="107" x2="1485" y2="107" stroke="#30363d" stroke-width="2"/>
    <!-- OCI ATP -->
    <rect x="3263" y="6" width="130" height="88" rx="9" fill="#000" fill-opacity="0.25"/>
    <rect x="3261" y="4" width="130" height="88" rx="9" fill="#5B2D8E"/>
    <rect x="3261" y="4" width="130" height="20" rx="9" fill="rgba(255,255,255,0.13)"/>
    <rect x="3261" y="15" width="130" height="9" fill="rgba(255,255,255,0.13)"/>
    <rect x="3261" y="72" width="130" height="20" rx="9" fill="rgba(0,0,0,0.2)"/>
    <rect x="3261" y="72" width="130" height="10" fill="rgba(0,0,0,0.2)"/>
    <circle cx="3326" cy="35" r="19" fill="#9B5DDE" fill-opacity="0.9"/>
    <circle cx="3326" cy="35" r="16" fill="rgba(255,255,255,0.15)"/>
    <text x="3326" y="40" text-anchor="middle" fill="white" font-size="11" font-weight="bold" font-family="'Courier New',Courier,monospace">ATP</text>
    <text x="3326" y="70" text-anchor="middle" fill="white" font-size="10" font-weight="bold" font-family="'Courier New',Courier,monospace">OCI ATP</text>
    <text x="3326" y="84" text-anchor="middle" fill="rgba(255,255,255,0.7)" font-size="7" font-family="'Courier New',Courier,monospace">Autonomous Database</text>
    <circle cx="3283" cy="107" r="11" fill="#161b22" stroke="#4d5566" stroke-width="2"/>
    <circle cx="3283" cy="107" r="3.5" fill="#9B5DDE" fill-opacity="0.7"/>
    <circle cx="3369" cy="107" r="11" fill="#161b22" stroke="#4d5566" stroke-width="2"/>
    <circle cx="3369" cy="107" r="3.5" fill="#9B5DDE" fill-opacity="0.7"/>
    <line x1="3391" y1="107" x2="3409" y2="107" stroke="#30363d" stroke-width="2"/>
    <!-- DBCS -->
    <rect x="1487" y="6" width="130" height="88" rx="9" fill="#000" fill-opacity="0.25"/>
    <rect x="1485" y="4" width="130" height="88" rx="9" fill="#1A3A5C"/>
    <rect x="1485" y="4" width="130" height="20" rx="9" fill="rgba(255,255,255,0.13)"/>
    <rect x="1485" y="15" width="130" height="9" fill="rgba(255,255,255,0.13)"/>
    <rect x="1485" y="72" width="130" height="20" rx="9" fill="rgba(0,0,0,0.2)"/>
    <rect x="1485" y="72" width="130" height="10" fill="rgba(0,0,0,0.2)"/>
    <circle cx="1550" cy="35" r="19" fill="#3A7FCC" fill-opacity="0.9"/>
    <circle cx="1550" cy="35" r="16" fill="rgba(255,255,255,0.15)"/>
    <text x="1550" y="40" text-anchor="middle" fill="white" font-size="11" font-weight="bold" font-family="'Courier New',Courier,monospace">DBC</text>
    <text x="1550" y="70" text-anchor="middle" fill="white" font-size="10" font-weight="bold" font-family="'Courier New',Courier,monospace">DBCS</text>
    <text x="1550" y="84" text-anchor="middle" fill="rgba(255,255,255,0.7)" font-size="7" font-family="'Courier New',Courier,monospace">DB Cloud Service</text>
    <circle cx="1507" cy="107" r="11" fill="#161b22" stroke="#4d5566" stroke-width="2"/>
    <circle cx="1507" cy="107" r="3.5" fill="#3A7FCC" fill-opacity="0.7"/>
    <circle cx="1593" cy="107" r="11" fill="#161b22" stroke="#4d5566" stroke-width="2"/>
    <circle cx="1593" cy="107" r="3.5" fill="#3A7FCC" fill-opacity="0.7"/>
    <line x1="1615" y1="107" x2="1633" y2="107" stroke="#30363d" stroke-width="2"/>
    <!-- DBCS -->
    <rect x="3411" y="6" width="130" height="88" rx="9" fill="#000" fill-opacity="0.25"/>
    <rect x="3409" y="4" width="130" height="88" rx="9" fill="#1A3A5C"/>
    <rect x="3409" y="4" width="130" height="20" rx="9" fill="rgba(255,255,255,0.13)"/>
    <rect x="3409" y="15" width="130" height="9" fill="rgba(255,255,255,0.13)"/>
    <rect x="3409" y="72" width="130" height="20" rx="9" fill="rgba(0,0,0,0.2)"/>
    <rect x="3409" y="72" width="130" height="10" fill="rgba(0,0,0,0.2)"/>
    <circle cx="3474" cy="35" r="19" fill="#3A7FCC" fill-opacity="0.9"/>
    <circle cx="3474" cy="35" r="16" fill="rgba(255,255,255,0.15)"/>
    <text x="3474" y="40" text-anchor="middle" fill="white" font-size="11" font-weight="bold" font-family="'Courier New',Courier,monospace">DBC</text>
    <text x="3474" y="70" text-anchor="middle" fill="white" font-size="10" font-weight="bold" font-family="'Courier New',Courier,monospace">DBCS</text>
    <text x="3474" y="84" text-anchor="middle" fill="rgba(255,255,255,0.7)" font-size="7" font-family="'Courier New',Courier,monospace">DB Cloud Service</text>
    <circle cx="3431" cy="107" r="11" fill="#161b22" stroke="#4d5566" stroke-width="2"/>
    <circle cx="3431" cy="107" r="3.5" fill="#3A7FCC" fill-opacity="0.7"/>
    <circle cx="3517" cy="107" r="11" fill="#161b22" stroke="#4d5566" stroke-width="2"/>
    <circle cx="3517" cy="107" r="3.5" fill="#3A7FCC" fill-opacity="0.7"/>
    <line x1="3539" y1="107" x2="3557" y2="107" stroke="#30363d" stroke-width="2"/>
    <!-- Linux -->
    <rect x="1635" y="6" width="130" height="88" rx="9" fill="#000" fill-opacity="0.25"/>
    <rect x="1633" y="4" width="130" height="88" rx="9" fill="#1C1C1C"/>
    <rect x="1633" y="4" width="130" height="20" rx="9" fill="rgba(255,255,255,0.13)"/>
    <rect x="1633" y="15" width="130" height="9" fill="rgba(255,255,255,0.13)"/>
    <rect x="1633" y="72" width="130" height="20" rx="9" fill="rgba(0,0,0,0.2)"/>
    <rect x="1633" y="72" width="130" height="10" fill="rgba(0,0,0,0.2)"/>
    <circle cx="1698" cy="35" r="19" fill="#FCC624" fill-opacity="0.9"/>
    <circle cx="1698" cy="35" r="16" fill="rgba(255,255,255,0.15)"/>
    <text x="1698" y="40" text-anchor="middle" fill="white" font-size="11" font-weight="bold" font-family="'Courier New',Courier,monospace">LNX</text>
    <text x="1698" y="70" text-anchor="middle" fill="white" font-size="10" font-weight="bold" font-family="'Courier New',Courier,monospace">Linux</text>
    <text x="1698" y="84" text-anchor="middle" fill="rgba(255,255,255,0.7)" font-size="7" font-family="'Courier New',Courier,monospace">Admin & Shell Scripting</text>
    <circle cx="1655" cy="107" r="11" fill="#161b22" stroke="#4d5566" stroke-width="2"/>
    <circle cx="1655" cy="107" r="3.5" fill="#FCC624" fill-opacity="0.7"/>
    <circle cx="1741" cy="107" r="11" fill="#161b22" stroke="#4d5566" stroke-width="2"/>
    <circle cx="1741" cy="107" r="3.5" fill="#FCC624" fill-opacity="0.7"/>
    <line x1="1763" y1="107" x2="1781" y2="107" stroke="#30363d" stroke-width="2"/>
    <!-- Linux -->
    <rect x="3559" y="6" width="130" height="88" rx="9" fill="#000" fill-opacity="0.25"/>
    <rect x="3557" y="4" width="130" height="88" rx="9" fill="#1C1C1C"/>
    <rect x="3557" y="4" width="130" height="20" rx="9" fill="rgba(255,255,255,0.13)"/>
    <rect x="3557" y="15" width="130" height="9" fill="rgba(255,255,255,0.13)"/>
    <rect x="3557" y="72" width="130" height="20" rx="9" fill="rgba(0,0,0,0.2)"/>
    <rect x="3557" y="72" width="130" height="10" fill="rgba(0,0,0,0.2)"/>
    <circle cx="3622" cy="35" r="19" fill="#FCC624" fill-opacity="0.9"/>
    <circle cx="3622" cy="35" r="16" fill="rgba(255,255,255,0.15)"/>
    <text x="3622" y="40" text-anchor="middle" fill="white" font-size="11" font-weight="bold" font-family="'Courier New',Courier,monospace">LNX</text>
    <text x="3622" y="70" text-anchor="middle" fill="white" font-size="10" font-weight="bold" font-family="'Courier New',Courier,monospace">Linux</text>
    <text x="3622" y="84" text-anchor="middle" fill="rgba(255,255,255,0.7)" font-size="7" font-family="'Courier New',Courier,monospace">Admin & Shell Scripting</text>
    <circle cx="3579" cy="107" r="11" fill="#161b22" stroke="#4d5566" stroke-width="2"/>
    <circle cx="3579" cy="107" r="3.5" fill="#FCC624" fill-opacity="0.7"/>
    <circle cx="3665" cy="107" r="11" fill="#161b22" stroke="#4d5566" stroke-width="2"/>
    <circle cx="3665" cy="107" r="3.5" fill="#FCC624" fill-opacity="0.7"/>
    <line x1="3687" y1="107" x2="3705" y2="107" stroke="#30363d" stroke-width="2"/>
    <!-- Multicloud -->
    <rect x="1783" y="6" width="130" height="88" rx="9" fill="#000" fill-opacity="0.25"/>
    <rect x="1781" y="4" width="130" height="88" rx="9" fill="#0A2463"/>
    <rect x="1781" y="4" width="130" height="20" rx="9" fill="rgba(255,255,255,0.13)"/>
    <rect x="1781" y="15" width="130" height="9" fill="rgba(255,255,255,0.13)"/>
    <rect x="1781" y="72" width="130" height="20" rx="9" fill="rgba(0,0,0,0.2)"/>
    <rect x="1781" y="72" width="130" height="10" fill="rgba(0,0,0,0.2)"/>
    <circle cx="1846" cy="35" r="19" fill="#3E92CC" fill-opacity="0.9"/>
    <circle cx="1846" cy="35" r="16" fill="rgba(255,255,255,0.15)"/>
    <text x="1846" y="40" text-anchor="middle" fill="white" font-size="11" font-weight="bold" font-family="'Courier New',Courier,monospace">MCL</text>
    <text x="1846" y="70" text-anchor="middle" fill="white" font-size="10" font-weight="bold" font-family="'Courier New',Courier,monospace">Multicloud</text>
    <text x="1846" y="84" text-anchor="middle" fill="rgba(255,255,255,0.7)" font-size="7" font-family="'Courier New',Courier,monospace">OCI · AWS · GCP</text>
    <circle cx="1803" cy="107" r="11" fill="#161b22" stroke="#4d5566" stroke-width="2"/>
    <circle cx="1803" cy="107" r="3.5" fill="#3E92CC" fill-opacity="0.7"/>
    <circle cx="1889" cy="107" r="11" fill="#161b22" stroke="#4d5566" stroke-width="2"/>
    <circle cx="1889" cy="107" r="3.5" fill="#3E92CC" fill-opacity="0.7"/>
    <line x1="1911" y1="107" x2="1929" y2="107" stroke="#30363d" stroke-width="2"/>
    <!-- Multicloud -->
    <rect x="3707" y="6" width="130" height="88" rx="9" fill="#000" fill-opacity="0.25"/>
    <rect x="3705" y="4" width="130" height="88" rx="9" fill="#0A2463"/>
    <rect x="3705" y="4" width="130" height="20" rx="9" fill="rgba(255,255,255,0.13)"/>
    <rect x="3705" y="15" width="130" height="9" fill="rgba(255,255,255,0.13)"/>
    <rect x="3705" y="72" width="130" height="20" rx="9" fill="rgba(0,0,0,0.2)"/>
    <rect x="3705" y="72" width="130" height="10" fill="rgba(0,0,0,0.2)"/>
    <circle cx="3770" cy="35" r="19" fill="#3E92CC" fill-opacity="0.9"/>
    <circle cx="3770" cy="35" r="16" fill="rgba(255,255,255,0.15)"/>
    <text x="3770" y="40" text-anchor="middle" fill="white" font-size="11" font-weight="bold" font-family="'Courier New',Courier,monospace">MCL</text>
    <text x="3770" y="70" text-anchor="middle" fill="white" font-size="10" font-weight="bold" font-family="'Courier New',Courier,monospace">Multicloud</text>
    <text x="3770" y="84" text-anchor="middle" fill="rgba(255,255,255,0.7)" font-size="7" font-family="'Courier New',Courier,monospace">OCI · AWS · GCP</text>
    <circle cx="3727" cy="107" r="11" fill="#161b22" stroke="#4d5566" stroke-width="2"/>
    <circle cx="3727" cy="107" r="3.5" fill="#3E92CC" fill-opacity="0.7"/>
    <circle cx="3813" cy="107" r="11" fill="#161b22" stroke="#4d5566" stroke-width="2"/>
    <circle cx="3813" cy="107" r="3.5" fill="#3E92CC" fill-opacity="0.7"/>
    <line x1="3835" y1="107" x2="3853" y2="107" stroke="#30363d" stroke-width="2"/>
  </g>

  <!-- Fade edges -->
  <rect x="0"            y="0" width="80"  height="124" fill="url(#fl)"/>
  <rect x="720" y="0" width="80"  height="124" fill="url(#fr)"/>
</svg>