<svg xmlns="http://www.w3.org/2000/svg" width="800" height="118" viewBox="0 0 800 118">
<defs>
  <filter id="ng" x="-40%" y="-40%" width="180%" height="180%">
    <feGaussianBlur stdDeviation="3.5" result="b"/>
    <feMerge><feMergeNode in="b"/><feMergeNode in="SourceGraphic"/></feMerge>
  </filter>
  <linearGradient id="hl" x1="0" x2="0" y1="0" y2="1">
    <stop offset="0%" stop-color="rgba(255,255,255,0.09)"/>
    <stop offset="50%" stop-color="rgba(255,255,255,0)"/>
    <stop offset="100%" stop-color="rgba(0,0,0,0.25)"/>
  </linearGradient>
  <pattern id="dots" width="22" height="22" patternUnits="userSpaceOnUse">
    <circle cx="11" cy="11" r="0.6" fill="#1a2535"/>
  </pattern>
  <linearGradient id="fl" x1="0" x2="1" y1="0" y2="0">
    <stop offset="0%" stop-color="#0d1117"/>
    <stop offset="100%" stop-color="#0d1117" stop-opacity="0"/>
  </linearGradient>
  <linearGradient id="fr" x1="0" x2="1" y1="0" y2="0">
    <stop offset="0%" stop-color="#0d1117" stop-opacity="0"/>
    <stop offset="100%" stop-color="#0d1117"/>
  </linearGradient>
</defs>
<rect width="800" height="118" fill="#0d1117"/>
<rect width="800" height="118" fill="url(#dots)"/>
<rect x="0" y="103" width="4" height="12" rx="1" fill="#121820"/><rect x="20" y="103" width="4" height="12" rx="1" fill="#121820"/><rect x="40" y="103" width="4" height="12" rx="1" fill="#121820"/><rect x="60" y="103" width="4" height="12" rx="1" fill="#121820"/><rect x="80" y="103" width="4" height="12" rx="1" fill="#121820"/><rect x="100" y="103" width="4" height="12" rx="1" fill="#121820"/><rect x="120" y="103" width="4" height="12" rx="1" fill="#121820"/><rect x="140" y="103" width="4" height="12" rx="1" fill="#121820"/><rect x="160" y="103" width="4" height="12" rx="1" fill="#121820"/><rect x="180" y="103" width="4" height="12" rx="1" fill="#121820"/><rect x="200" y="103" width="4" height="12" rx="1" fill="#121820"/><rect x="220" y="103" width="4" height="12" rx="1" fill="#121820"/><rect x="240" y="103" width="4" height="12" rx="1" fill="#121820"/><rect x="260" y="103" width="4" height="12" rx="1" fill="#121820"/><rect x="280" y="103" width="4" height="12" rx="1" fill="#121820"/><rect x="300" y="103" width="4" height="12" rx="1" fill="#121820"/><rect x="320" y="103" width="4" height="12" rx="1" fill="#121820"/><rect x="340" y="103" width="4" height="12" rx="1" fill="#121820"/><rect x="360" y="103" width="4" height="12" rx="1" fill="#121820"/><rect x="380" y="103" width="4" height="12" rx="1" fill="#121820"/><rect x="400" y="103" width="4" height="12" rx="1" fill="#121820"/><rect x="420" y="103" width="4" height="12" rx="1" fill="#121820"/><rect x="440" y="103" width="4" height="12" rx="1" fill="#121820"/><rect x="460" y="103" width="4" height="12" rx="1" fill="#121820"/><rect x="480" y="103" width="4" height="12" rx="1" fill="#121820"/><rect x="500" y="103" width="4" height="12" rx="1" fill="#121820"/><rect x="520" y="103" width="4" height="12" rx="1" fill="#121820"/><rect x="540" y="103" width="4" height="12" rx="1" fill="#121820"/><rect x="560" y="103" width="4" height="12" rx="1" fill="#121820"/><rect x="580" y="103" width="4" height="12" rx="1" fill="#121820"/><rect x="600" y="103" width="4" height="12" rx="1" fill="#121820"/><rect x="620" y="103" width="4" height="12" rx="1" fill="#121820"/><rect x="640" y="103" width="4" height="12" rx="1" fill="#121820"/><rect x="660" y="103" width="4" height="12" rx="1" fill="#121820"/><rect x="680" y="103" width="4" height="12" rx="1" fill="#121820"/><rect x="700" y="103" width="4" height="12" rx="1" fill="#121820"/><rect x="720" y="103" width="4" height="12" rx="1" fill="#121820"/><rect x="740" y="103" width="4" height="12" rx="1" fill="#121820"/><rect x="760" y="103" width="4" height="12" rx="1" fill="#121820"/><rect x="780" y="103" width="4" height="12" rx="1" fill="#121820"/><rect x="800" y="103" width="4" height="12" rx="1" fill="#121820"/>
<rect y="105" width="800" height="2.5" rx="1" fill="#1e2a3a"/>
<rect y="111" width="800" height="2" rx="1" fill="#141e2a"/>
<g>
  <animateTransform attributeName="transform" type="translate"
    from="0,0" to="-1716,0" dur="36s" repeatCount="indefinite"/>

      <!-- Terraform -->
      <rect x="5" y="3" width="118" height="86" rx="9" fill="none" stroke="#A259FF" stroke-width="1.2" opacity="0.5" filter="url(#ng)"/>
      <rect x="6" y="4" width="116" height="84" rx="8" fill="#120030"/>
      <rect x="6" y="4" width="116" height="84" rx="8" fill="url(#hl)"/>
      <rect x="12" y="4" width="104" height="2" rx="1" fill="#A259FF" opacity="0.9"/>
      <circle cx="64" cy="31" r="15" fill="#A259FF" fill-opacity="0.15" stroke="#A259FF" stroke-width="0.8"/>
      <text x="64" y="35" text-anchor="middle" fill="#A259FF" font-size="9" font-weight="bold" font-family="Courier New,monospace">TF</text>
      <text x="64" y="63" text-anchor="middle" fill="#FFFFFF" font-size="9" font-weight="bold" font-family="Courier New,monospace">Terraform</text>
      <text x="64" y="77" text-anchor="middle" fill="#A259FF" font-size="6" font-family="Courier New,monospace" opacity="0.85">IaC · Modules · Workspaces</text>
      <polygon points="29.8,95.5 29.8,104.5 22.0,109.0 14.2,104.5 14.2,95.5 22.0,91.0" fill="#0d1117" stroke="#A259FF" stroke-width="1.2" opacity="0.7"/>
      <circle cx="22" cy="100" r="2.5" fill="#A259FF" opacity="0.6"/>
      <polygon points="113.8,95.5 113.8,104.5 106.0,109.0 98.2,104.5 98.2,95.5 106.0,91.0" fill="#0d1117" stroke="#A259FF" stroke-width="1.2" opacity="0.7"/>
      <circle cx="106" cy="100" r="2.5" fill="#A259FF" opacity="0.6"/>
      <line x1="122" y1="100" x2="138" y2="100" stroke="#A259FF" stroke-width="1" stroke-dasharray="3,4" opacity="0.35"/>
      <!-- Terraform -->
      <rect x="1721" y="3" width="118" height="86" rx="9" fill="none" stroke="#A259FF" stroke-width="1.2" opacity="0.5" filter="url(#ng)"/>
      <rect x="1722" y="4" width="116" height="84" rx="8" fill="#120030"/>
      <rect x="1722" y="4" width="116" height="84" rx="8" fill="url(#hl)"/>
      <rect x="1728" y="4" width="104" height="2" rx="1" fill="#A259FF" opacity="0.9"/>
      <circle cx="1780" cy="31" r="15" fill="#A259FF" fill-opacity="0.15" stroke="#A259FF" stroke-width="0.8"/>
      <text x="1780" y="35" text-anchor="middle" fill="#A259FF" font-size="9" font-weight="bold" font-family="Courier New,monospace">TF</text>
      <text x="1780" y="63" text-anchor="middle" fill="#FFFFFF" font-size="9" font-weight="bold" font-family="Courier New,monospace">Terraform</text>
      <text x="1780" y="77" text-anchor="middle" fill="#A259FF" font-size="6" font-family="Courier New,monospace" opacity="0.85">IaC · Modules · Workspaces</text>
      <polygon points="1745.8,95.5 1745.8,104.5 1738.0,109.0 1730.2,104.5 1730.2,95.5 1738.0,91.0" fill="#0d1117" stroke="#A259FF" stroke-width="1.2" opacity="0.7"/>
      <circle cx="1738" cy="100" r="2.5" fill="#A259FF" opacity="0.6"/>
      <polygon points="1829.8,95.5 1829.8,104.5 1822.0,109.0 1814.2,104.5 1814.2,95.5 1822.0,91.0" fill="#0d1117" stroke="#A259FF" stroke-width="1.2" opacity="0.7"/>
      <circle cx="1822" cy="100" r="2.5" fill="#A259FF" opacity="0.6"/>
      <line x1="1838" y1="100" x2="1854" y2="100" stroke="#A259FF" stroke-width="1" stroke-dasharray="3,4" opacity="0.35"/>
      <!-- AWS -->
      <rect x="137" y="3" width="118" height="86" rx="9" fill="none" stroke="#FF9900" stroke-width="1.2" opacity="0.5" filter="url(#ng)"/>
      <rect x="138" y="4" width="116" height="84" rx="8" fill="#1A0D00"/>
      <rect x="138" y="4" width="116" height="84" rx="8" fill="url(#hl)"/>
      <rect x="144" y="4" width="104" height="2" rx="1" fill="#FF9900" opacity="0.9"/>
      <circle cx="196" cy="31" r="15" fill="#FF9900" fill-opacity="0.15" stroke="#FF9900" stroke-width="0.8"/>
      <text x="196" y="35" text-anchor="middle" fill="#FF9900" font-size="9" font-weight="bold" font-family="Courier New,monospace">AWS</text>
      <text x="196" y="63" text-anchor="middle" fill="#FFFFFF" font-size="9" font-weight="bold" font-family="Courier New,monospace">AWS</text>
      <text x="196" y="77" text-anchor="middle" fill="#FF9900" font-size="6" font-family="Courier New,monospace" opacity="0.85">EC2 · VPC · RDS · IAM</text>
      <polygon points="161.8,95.5 161.8,104.5 154.0,109.0 146.2,104.5 146.2,95.5 154.0,91.0" fill="#0d1117" stroke="#FF9900" stroke-width="1.2" opacity="0.7"/>
      <circle cx="154" cy="100" r="2.5" fill="#FF9900" opacity="0.6"/>
      <polygon points="245.8,95.5 245.8,104.5 238.0,109.0 230.2,104.5 230.2,95.5 238.0,91.0" fill="#0d1117" stroke="#FF9900" stroke-width="1.2" opacity="0.7"/>
      <circle cx="238" cy="100" r="2.5" fill="#FF9900" opacity="0.6"/>
      <line x1="254" y1="100" x2="270" y2="100" stroke="#FF9900" stroke-width="1" stroke-dasharray="3,4" opacity="0.35"/>
      <!-- AWS -->
      <rect x="1853" y="3" width="118" height="86" rx="9" fill="none" stroke="#FF9900" stroke-width="1.2" opacity="0.5" filter="url(#ng)"/>
      <rect x="1854" y="4" width="116" height="84" rx="8" fill="#1A0D00"/>
      <rect x="1854" y="4" width="116" height="84" rx="8" fill="url(#hl)"/>
      <rect x="1860" y="4" width="104" height="2" rx="1" fill="#FF9900" opacity="0.9"/>
      <circle cx="1912" cy="31" r="15" fill="#FF9900" fill-opacity="0.15" stroke="#FF9900" stroke-width="0.8"/>
      <text x="1912" y="35" text-anchor="middle" fill="#FF9900" font-size="9" font-weight="bold" font-family="Courier New,monospace">AWS</text>
      <text x="1912" y="63" text-anchor="middle" fill="#FFFFFF" font-size="9" font-weight="bold" font-family="Courier New,monospace">AWS</text>
      <text x="1912" y="77" text-anchor="middle" fill="#FF9900" font-size="6" font-family="Courier New,monospace" opacity="0.85">EC2 · VPC · RDS · IAM</text>
      <polygon points="1877.8,95.5 1877.8,104.5 1870.0,109.0 1862.2,104.5 1862.2,95.5 1870.0,91.0" fill="#0d1117" stroke="#FF9900" stroke-width="1.2" opacity="0.7"/>
      <circle cx="1870" cy="100" r="2.5" fill="#FF9900" opacity="0.6"/>
      <polygon points="1961.8,95.5 1961.8,104.5 1954.0,109.0 1946.2,104.5 1946.2,95.5 1954.0,91.0" fill="#0d1117" stroke="#FF9900" stroke-width="1.2" opacity="0.7"/>
      <circle cx="1954" cy="100" r="2.5" fill="#FF9900" opacity="0.6"/>
      <line x1="1970" y1="100" x2="1986" y2="100" stroke="#FF9900" stroke-width="1" stroke-dasharray="3,4" opacity="0.35"/>
      <!-- GitHub Actions -->
      <rect x="269" y="3" width="118" height="86" rx="9" fill="none" stroke="#2E8FFF" stroke-width="1.2" opacity="0.5" filter="url(#ng)"/>
      <rect x="270" y="4" width="116" height="84" rx="8" fill="#001040"/>
      <rect x="270" y="4" width="116" height="84" rx="8" fill="url(#hl)"/>
      <rect x="276" y="4" width="104" height="2" rx="1" fill="#2E8FFF" opacity="0.9"/>
      <circle cx="328" cy="31" r="15" fill="#2E8FFF" fill-opacity="0.15" stroke="#2E8FFF" stroke-width="0.8"/>
      <text x="328" y="35" text-anchor="middle" fill="#2E8FFF" font-size="9" font-weight="bold" font-family="Courier New,monospace">GHA</text>
      <text x="328" y="63" text-anchor="middle" fill="#FFFFFF" font-size="9" font-weight="bold" font-family="Courier New,monospace">GitHub Actions</text>
      <text x="328" y="77" text-anchor="middle" fill="#2E8FFF" font-size="6" font-family="Courier New,monospace" opacity="0.85">CI/CD Pipelines</text>
      <polygon points="293.8,95.5 293.8,104.5 286.0,109.0 278.2,104.5 278.2,95.5 286.0,91.0" fill="#0d1117" stroke="#2E8FFF" stroke-width="1.2" opacity="0.7"/>
      <circle cx="286" cy="100" r="2.5" fill="#2E8FFF" opacity="0.6"/>
      <polygon points="377.8,95.5 377.8,104.5 370.0,109.0 362.2,104.5 362.2,95.5 370.0,91.0" fill="#0d1117" stroke="#2E8FFF" stroke-width="1.2" opacity="0.7"/>
      <circle cx="370" cy="100" r="2.5" fill="#2E8FFF" opacity="0.6"/>
      <line x1="386" y1="100" x2="402" y2="100" stroke="#2E8FFF" stroke-width="1" stroke-dasharray="3,4" opacity="0.35"/>
      <!-- GitHub Actions -->
      <rect x="1985" y="3" width="118" height="86" rx="9" fill="none" stroke="#2E8FFF" stroke-width="1.2" opacity="0.5" filter="url(#ng)"/>
      <rect x="1986" y="4" width="116" height="84" rx="8" fill="#001040"/>
      <rect x="1986" y="4" width="116" height="84" rx="8" fill="url(#hl)"/>
      <rect x="1992" y="4" width="104" height="2" rx="1" fill="#2E8FFF" opacity="0.9"/>
      <circle cx="2044" cy="31" r="15" fill="#2E8FFF" fill-opacity="0.15" stroke="#2E8FFF" stroke-width="0.8"/>
      <text x="2044" y="35" text-anchor="middle" fill="#2E8FFF" font-size="9" font-weight="bold" font-family="Courier New,monospace">GHA</text>
      <text x="2044" y="63" text-anchor="middle" fill="#FFFFFF" font-size="9" font-weight="bold" font-family="Courier New,monospace">GitHub Actions</text>
      <text x="2044" y="77" text-anchor="middle" fill="#2E8FFF" font-size="6" font-family="Courier New,monospace" opacity="0.85">CI/CD Pipelines</text>
      <polygon points="2009.8,95.5 2009.8,104.5 2002.0,109.0 1994.2,104.5 1994.2,95.5 2002.0,91.0" fill="#0d1117" stroke="#2E8FFF" stroke-width="1.2" opacity="0.7"/>
      <circle cx="2002" cy="100" r="2.5" fill="#2E8FFF" opacity="0.6"/>
      <polygon points="2093.8,95.5 2093.8,104.5 2086.0,109.0 2078.2,104.5 2078.2,95.5 2086.0,91.0" fill="#0d1117" stroke="#2E8FFF" stroke-width="1.2" opacity="0.7"/>
      <circle cx="2086" cy="100" r="2.5" fill="#2E8FFF" opacity="0.6"/>
      <line x1="2102" y1="100" x2="2118" y2="100" stroke="#2E8FFF" stroke-width="1" stroke-dasharray="3,4" opacity="0.35"/>
      <!-- Git & GitHub -->
      <rect x="401" y="3" width="118" height="86" rx="9" fill="none" stroke="#F05032" stroke-width="1.2" opacity="0.5" filter="url(#ng)"/>
      <rect x="402" y="4" width="116" height="84" rx="8" fill="#1C0800"/>
      <rect x="402" y="4" width="116" height="84" rx="8" fill="url(#hl)"/>
      <rect x="408" y="4" width="104" height="2" rx="1" fill="#F05032" opacity="0.9"/>
      <circle cx="460" cy="31" r="15" fill="#F05032" fill-opacity="0.15" stroke="#F05032" stroke-width="0.8"/>
      <text x="460" y="35" text-anchor="middle" fill="#F05032" font-size="9" font-weight="bold" font-family="Courier New,monospace">GIT</text>
      <text x="460" y="63" text-anchor="middle" fill="#FFFFFF" font-size="9" font-weight="bold" font-family="Courier New,monospace">Git & GitHub</text>
      <text x="460" y="77" text-anchor="middle" fill="#F05032" font-size="6" font-family="Courier New,monospace" opacity="0.85">Version Control</text>
      <polygon points="425.8,95.5 425.8,104.5 418.0,109.0 410.2,104.5 410.2,95.5 418.0,91.0" fill="#0d1117" stroke="#F05032" stroke-width="1.2" opacity="0.7"/>
      <circle cx="418" cy="100" r="2.5" fill="#F05032" opacity="0.6"/>
      <polygon points="509.8,95.5 509.8,104.5 502.0,109.0 494.2,104.5 494.2,95.5 502.0,91.0" fill="#0d1117" stroke="#F05032" stroke-width="1.2" opacity="0.7"/>
      <circle cx="502" cy="100" r="2.5" fill="#F05032" opacity="0.6"/>
      <line x1="518" y1="100" x2="534" y2="100" stroke="#F05032" stroke-width="1" stroke-dasharray="3,4" opacity="0.35"/>
      <!-- Git & GitHub -->
      <rect x="2117" y="3" width="118" height="86" rx="9" fill="none" stroke="#F05032" stroke-width="1.2" opacity="0.5" filter="url(#ng)"/>
      <rect x="2118" y="4" width="116" height="84" rx="8" fill="#1C0800"/>
      <rect x="2118" y="4" width="116" height="84" rx="8" fill="url(#hl)"/>
      <rect x="2124" y="4" width="104" height="2" rx="1" fill="#F05032" opacity="0.9"/>
      <circle cx="2176" cy="31" r="15" fill="#F05032" fill-opacity="0.15" stroke="#F05032" stroke-width="0.8"/>
      <text x="2176" y="35" text-anchor="middle" fill="#F05032" font-size="9" font-weight="bold" font-family="Courier New,monospace">GIT</text>
      <text x="2176" y="63" text-anchor="middle" fill="#FFFFFF" font-size="9" font-weight="bold" font-family="Courier New,monospace">Git & GitHub</text>
      <text x="2176" y="77" text-anchor="middle" fill="#F05032" font-size="6" font-family="Courier New,monospace" opacity="0.85">Version Control</text>
      <polygon points="2141.8,95.5 2141.8,104.5 2134.0,109.0 2126.2,104.5 2126.2,95.5 2134.0,91.0" fill="#0d1117" stroke="#F05032" stroke-width="1.2" opacity="0.7"/>
      <circle cx="2134" cy="100" r="2.5" fill="#F05032" opacity="0.6"/>
      <polygon points="2225.8,95.5 2225.8,104.5 2218.0,109.0 2210.2,104.5 2210.2,95.5 2218.0,91.0" fill="#0d1117" stroke="#F05032" stroke-width="1.2" opacity="0.7"/>
      <circle cx="2218" cy="100" r="2.5" fill="#F05032" opacity="0.6"/>
      <line x1="2234" y1="100" x2="2250" y2="100" stroke="#F05032" stroke-width="1" stroke-dasharray="3,4" opacity="0.35"/>
      <!-- Oracle Cloud -->
      <rect x="533" y="3" width="118" height="86" rx="9" fill="none" stroke="#FF5733" stroke-width="1.2" opacity="0.5" filter="url(#ng)"/>
      <rect x="534" y="4" width="116" height="84" rx="8" fill="#3A0800"/>
      <rect x="534" y="4" width="116" height="84" rx="8" fill="url(#hl)"/>
      <rect x="540" y="4" width="104" height="2" rx="1" fill="#FF5733" opacity="0.9"/>
      <circle cx="592" cy="31" r="15" fill="#FF5733" fill-opacity="0.15" stroke="#FF5733" stroke-width="0.8"/>
      <text x="592" y="35" text-anchor="middle" fill="#FF5733" font-size="9" font-weight="bold" font-family="Courier New,monospace">OCI</text>
      <text x="592" y="63" text-anchor="middle" fill="#FFFFFF" font-size="9" font-weight="bold" font-family="Courier New,monospace">Oracle Cloud</text>
      <text x="592" y="77" text-anchor="middle" fill="#FF5733" font-size="6" font-family="Courier New,monospace" opacity="0.85">Hub & Spoke · Compute</text>
      <polygon points="557.8,95.5 557.8,104.5 550.0,109.0 542.2,104.5 542.2,95.5 550.0,91.0" fill="#0d1117" stroke="#FF5733" stroke-width="1.2" opacity="0.7"/>
      <circle cx="550" cy="100" r="2.5" fill="#FF5733" opacity="0.6"/>
      <polygon points="641.8,95.5 641.8,104.5 634.0,109.0 626.2,104.5 626.2,95.5 634.0,91.0" fill="#0d1117" stroke="#FF5733" stroke-width="1.2" opacity="0.7"/>
      <circle cx="634" cy="100" r="2.5" fill="#FF5733" opacity="0.6"/>
      <line x1="650" y1="100" x2="666" y2="100" stroke="#FF5733" stroke-width="1" stroke-dasharray="3,4" opacity="0.35"/>
      <!-- Oracle Cloud -->
      <rect x="2249" y="3" width="118" height="86" rx="9" fill="none" stroke="#FF5733" stroke-width="1.2" opacity="0.5" filter="url(#ng)"/>
      <rect x="2250" y="4" width="116" height="84" rx="8" fill="#3A0800"/>
      <rect x="2250" y="4" width="116" height="84" rx="8" fill="url(#hl)"/>
      <rect x="2256" y="4" width="104" height="2" rx="1" fill="#FF5733" opacity="0.9"/>
      <circle cx="2308" cy="31" r="15" fill="#FF5733" fill-opacity="0.15" stroke="#FF5733" stroke-width="0.8"/>
      <text x="2308" y="35" text-anchor="middle" fill="#FF5733" font-size="9" font-weight="bold" font-family="Courier New,monospace">OCI</text>
      <text x="2308" y="63" text-anchor="middle" fill="#FFFFFF" font-size="9" font-weight="bold" font-family="Courier New,monospace">Oracle Cloud</text>
      <text x="2308" y="77" text-anchor="middle" fill="#FF5733" font-size="6" font-family="Courier New,monospace" opacity="0.85">Hub & Spoke · Compute</text>
      <polygon points="2273.8,95.5 2273.8,104.5 2266.0,109.0 2258.2,104.5 2258.2,95.5 2266.0,91.0" fill="#0d1117" stroke="#FF5733" stroke-width="1.2" opacity="0.7"/>
      <circle cx="2266" cy="100" r="2.5" fill="#FF5733" opacity="0.6"/>
      <polygon points="2357.8,95.5 2357.8,104.5 2350.0,109.0 2342.2,104.5 2342.2,95.5 2350.0,91.0" fill="#0d1117" stroke="#FF5733" stroke-width="1.2" opacity="0.7"/>
      <circle cx="2350" cy="100" r="2.5" fill="#FF5733" opacity="0.6"/>
      <line x1="2366" y1="100" x2="2382" y2="100" stroke="#FF5733" stroke-width="1" stroke-dasharray="3,4" opacity="0.35"/>
      <!-- OCI Networking -->
      <rect x="665" y="3" width="118" height="86" rx="9" fill="none" stroke="#00E5E5" stroke-width="1.2" opacity="0.5" filter="url(#ng)"/>
      <rect x="666" y="4" width="116" height="84" rx="8" fill="#001A1A"/>
      <rect x="666" y="4" width="116" height="84" rx="8" fill="url(#hl)"/>
      <rect x="672" y="4" width="104" height="2" rx="1" fill="#00E5E5" opacity="0.9"/>
      <circle cx="724" cy="31" r="15" fill="#00E5E5" fill-opacity="0.15" stroke="#00E5E5" stroke-width="0.8"/>
      <text x="724" y="35" text-anchor="middle" fill="#00E5E5" font-size="9" font-weight="bold" font-family="Courier New,monospace">NET</text>
      <text x="724" y="63" text-anchor="middle" fill="#FFFFFF" font-size="9" font-weight="bold" font-family="Courier New,monospace">OCI Networking</text>
      <text x="724" y="77" text-anchor="middle" fill="#00E5E5" font-size="6" font-family="Courier New,monospace" opacity="0.85">VCN · DRG · FastConnect</text>
      <polygon points="689.8,95.5 689.8,104.5 682.0,109.0 674.2,104.5 674.2,95.5 682.0,91.0" fill="#0d1117" stroke="#00E5E5" stroke-width="1.2" opacity="0.7"/>
      <circle cx="682" cy="100" r="2.5" fill="#00E5E5" opacity="0.6"/>
      <polygon points="773.8,95.5 773.8,104.5 766.0,109.0 758.2,104.5 758.2,95.5 766.0,91.0" fill="#0d1117" stroke="#00E5E5" stroke-width="1.2" opacity="0.7"/>
      <circle cx="766" cy="100" r="2.5" fill="#00E5E5" opacity="0.6"/>
      <line x1="782" y1="100" x2="798" y2="100" stroke="#00E5E5" stroke-width="1" stroke-dasharray="3,4" opacity="0.35"/>
      <!-- OCI Networking -->
      <rect x="2381" y="3" width="118" height="86" rx="9" fill="none" stroke="#00E5E5" stroke-width="1.2" opacity="0.5" filter="url(#ng)"/>
      <rect x="2382" y="4" width="116" height="84" rx="8" fill="#001A1A"/>
      <rect x="2382" y="4" width="116" height="84" rx="8" fill="url(#hl)"/>
      <rect x="2388" y="4" width="104" height="2" rx="1" fill="#00E5E5" opacity="0.9"/>
      <circle cx="2440" cy="31" r="15" fill="#00E5E5" fill-opacity="0.15" stroke="#00E5E5" stroke-width="0.8"/>
      <text x="2440" y="35" text-anchor="middle" fill="#00E5E5" font-size="9" font-weight="bold" font-family="Courier New,monospace">NET</text>
      <text x="2440" y="63" text-anchor="middle" fill="#FFFFFF" font-size="9" font-weight="bold" font-family="Courier New,monospace">OCI Networking</text>
      <text x="2440" y="77" text-anchor="middle" fill="#00E5E5" font-size="6" font-family="Courier New,monospace" opacity="0.85">VCN · DRG · FastConnect</text>
      <polygon points="2405.8,95.5 2405.8,104.5 2398.0,109.0 2390.2,104.5 2390.2,95.5 2398.0,91.0" fill="#0d1117" stroke="#00E5E5" stroke-width="1.2" opacity="0.7"/>
      <circle cx="2398" cy="100" r="2.5" fill="#00E5E5" opacity="0.6"/>
      <polygon points="2489.8,95.5 2489.8,104.5 2482.0,109.0 2474.2,104.5 2474.2,95.5 2482.0,91.0" fill="#0d1117" stroke="#00E5E5" stroke-width="1.2" opacity="0.7"/>
      <circle cx="2482" cy="100" r="2.5" fill="#00E5E5" opacity="0.6"/>
      <line x1="2498" y1="100" x2="2514" y2="100" stroke="#00E5E5" stroke-width="1" stroke-dasharray="3,4" opacity="0.35"/>
      <!-- IAM & Security -->
      <rect x="797" y="3" width="118" height="86" rx="9" fill="none" stroke="#5588FF" stroke-width="1.2" opacity="0.5" filter="url(#ng)"/>
      <rect x="798" y="4" width="116" height="84" rx="8" fill="#001030"/>
      <rect x="798" y="4" width="116" height="84" rx="8" fill="url(#hl)"/>
      <rect x="804" y="4" width="104" height="2" rx="1" fill="#5588FF" opacity="0.9"/>
      <circle cx="856" cy="31" r="15" fill="#5588FF" fill-opacity="0.15" stroke="#5588FF" stroke-width="0.8"/>
      <text x="856" y="35" text-anchor="middle" fill="#5588FF" font-size="9" font-weight="bold" font-family="Courier New,monospace">IAM</text>
      <text x="856" y="63" text-anchor="middle" fill="#FFFFFF" font-size="9" font-weight="bold" font-family="Courier New,monospace">IAM & Security</text>
      <text x="856" y="77" text-anchor="middle" fill="#5588FF" font-size="6" font-family="Courier New,monospace" opacity="0.85">Policies · Vault · Keys</text>
      <polygon points="821.8,95.5 821.8,104.5 814.0,109.0 806.2,104.5 806.2,95.5 814.0,91.0" fill="#0d1117" stroke="#5588FF" stroke-width="1.2" opacity="0.7"/>
      <circle cx="814" cy="100" r="2.5" fill="#5588FF" opacity="0.6"/>
      <polygon points="905.8,95.5 905.8,104.5 898.0,109.0 890.2,104.5 890.2,95.5 898.0,91.0" fill="#0d1117" stroke="#5588FF" stroke-width="1.2" opacity="0.7"/>
      <circle cx="898" cy="100" r="2.5" fill="#5588FF" opacity="0.6"/>
      <line x1="914" y1="100" x2="930" y2="100" stroke="#5588FF" stroke-width="1" stroke-dasharray="3,4" opacity="0.35"/>
      <!-- IAM & Security -->
      <rect x="2513" y="3" width="118" height="86" rx="9" fill="none" stroke="#5588FF" stroke-width="1.2" opacity="0.5" filter="url(#ng)"/>
      <rect x="2514" y="4" width="116" height="84" rx="8" fill="#001030"/>
      <rect x="2514" y="4" width="116" height="84" rx="8" fill="url(#hl)"/>
      <rect x="2520" y="4" width="104" height="2" rx="1" fill="#5588FF" opacity="0.9"/>
      <circle cx="2572" cy="31" r="15" fill="#5588FF" fill-opacity="0.15" stroke="#5588FF" stroke-width="0.8"/>
      <text x="2572" y="35" text-anchor="middle" fill="#5588FF" font-size="9" font-weight="bold" font-family="Courier New,monospace">IAM</text>
      <text x="2572" y="63" text-anchor="middle" fill="#FFFFFF" font-size="9" font-weight="bold" font-family="Courier New,monospace">IAM & Security</text>
      <text x="2572" y="77" text-anchor="middle" fill="#5588FF" font-size="6" font-family="Courier New,monospace" opacity="0.85">Policies · Vault · Keys</text>
      <polygon points="2537.8,95.5 2537.8,104.5 2530.0,109.0 2522.2,104.5 2522.2,95.5 2530.0,91.0" fill="#0d1117" stroke="#5588FF" stroke-width="1.2" opacity="0.7"/>
      <circle cx="2530" cy="100" r="2.5" fill="#5588FF" opacity="0.6"/>
      <polygon points="2621.8,95.5 2621.8,104.5 2614.0,109.0 2606.2,104.5 2606.2,95.5 2614.0,91.0" fill="#0d1117" stroke="#5588FF" stroke-width="1.2" opacity="0.7"/>
      <circle cx="2614" cy="100" r="2.5" fill="#5588FF" opacity="0.6"/>
      <line x1="2630" y1="100" x2="2646" y2="100" stroke="#5588FF" stroke-width="1" stroke-dasharray="3,4" opacity="0.35"/>
      <!-- Oracle DB -->
      <rect x="929" y="3" width="118" height="86" rx="9" fill="none" stroke="#FF3333" stroke-width="1.2" opacity="0.5" filter="url(#ng)"/>
      <rect x="930" y="4" width="116" height="84" rx="8" fill="#2A0000"/>
      <rect x="930" y="4" width="116" height="84" rx="8" fill="url(#hl)"/>
      <rect x="936" y="4" width="104" height="2" rx="1" fill="#FF3333" opacity="0.9"/>
      <circle cx="988" cy="31" r="15" fill="#FF3333" fill-opacity="0.15" stroke="#FF3333" stroke-width="0.8"/>
      <text x="988" y="35" text-anchor="middle" fill="#FF3333" font-size="9" font-weight="bold" font-family="Courier New,monospace">ODB</text>
      <text x="988" y="63" text-anchor="middle" fill="#FFFFFF" font-size="9" font-weight="bold" font-family="Courier New,monospace">Oracle DB</text>
      <text x="988" y="77" text-anchor="middle" fill="#FF3333" font-size="6" font-family="Courier New,monospace" opacity="0.85">Enterprise RDBMS</text>
      <polygon points="953.8,95.5 953.8,104.5 946.0,109.0 938.2,104.5 938.2,95.5 946.0,91.0" fill="#0d1117" stroke="#FF3333" stroke-width="1.2" opacity="0.7"/>
      <circle cx="946" cy="100" r="2.5" fill="#FF3333" opacity="0.6"/>
      <polygon points="1037.8,95.5 1037.8,104.5 1030.0,109.0 1022.2,104.5 1022.2,95.5 1030.0,91.0" fill="#0d1117" stroke="#FF3333" stroke-width="1.2" opacity="0.7"/>
      <circle cx="1030" cy="100" r="2.5" fill="#FF3333" opacity="0.6"/>
      <line x1="1046" y1="100" x2="1062" y2="100" stroke="#FF3333" stroke-width="1" stroke-dasharray="3,4" opacity="0.35"/>
      <!-- Oracle DB -->
      <rect x="2645" y="3" width="118" height="86" rx="9" fill="none" stroke="#FF3333" stroke-width="1.2" opacity="0.5" filter="url(#ng)"/>
      <rect x="2646" y="4" width="116" height="84" rx="8" fill="#2A0000"/>
      <rect x="2646" y="4" width="116" height="84" rx="8" fill="url(#hl)"/>
      <rect x="2652" y="4" width="104" height="2" rx="1" fill="#FF3333" opacity="0.9"/>
      <circle cx="2704" cy="31" r="15" fill="#FF3333" fill-opacity="0.15" stroke="#FF3333" stroke-width="0.8"/>
      <text x="2704" y="35" text-anchor="middle" fill="#FF3333" font-size="9" font-weight="bold" font-family="Courier New,monospace">ODB</text>
      <text x="2704" y="63" text-anchor="middle" fill="#FFFFFF" font-size="9" font-weight="bold" font-family="Courier New,monospace">Oracle DB</text>
      <text x="2704" y="77" text-anchor="middle" fill="#FF3333" font-size="6" font-family="Courier New,monospace" opacity="0.85">Enterprise RDBMS</text>
      <polygon points="2669.8,95.5 2669.8,104.5 2662.0,109.0 2654.2,104.5 2654.2,95.5 2662.0,91.0" fill="#0d1117" stroke="#FF3333" stroke-width="1.2" opacity="0.7"/>
      <circle cx="2662" cy="100" r="2.5" fill="#FF3333" opacity="0.6"/>
      <polygon points="2753.8,95.5 2753.8,104.5 2746.0,109.0 2738.2,104.5 2738.2,95.5 2746.0,91.0" fill="#0d1117" stroke="#FF3333" stroke-width="1.2" opacity="0.7"/>
      <circle cx="2746" cy="100" r="2.5" fill="#FF3333" opacity="0.6"/>
      <line x1="2762" y1="100" x2="2778" y2="100" stroke="#FF3333" stroke-width="1" stroke-dasharray="3,4" opacity="0.35"/>
      <!-- Exadata -->
      <rect x="1061" y="3" width="118" height="86" rx="9" fill="none" stroke="#FF6666" stroke-width="1.2" opacity="0.5" filter="url(#ng)"/>
      <rect x="1062" y="4" width="116" height="84" rx="8" fill="#1A0000"/>
      <rect x="1062" y="4" width="116" height="84" rx="8" fill="url(#hl)"/>
      <rect x="1068" y="4" width="104" height="2" rx="1" fill="#FF6666" opacity="0.9"/>
      <circle cx="1120" cy="31" r="15" fill="#FF6666" fill-opacity="0.15" stroke="#FF6666" stroke-width="0.8"/>
      <text x="1120" y="35" text-anchor="middle" fill="#FF6666" font-size="9" font-weight="bold" font-family="Courier New,monospace">EXA</text>
      <text x="1120" y="63" text-anchor="middle" fill="#FFFFFF" font-size="9" font-weight="bold" font-family="Courier New,monospace">Exadata</text>
      <text x="1120" y="77" text-anchor="middle" fill="#FF6666" font-size="6" font-family="Courier New,monospace" opacity="0.85">300TB+ Migrated</text>
      <polygon points="1085.8,95.5 1085.8,104.5 1078.0,109.0 1070.2,104.5 1070.2,95.5 1078.0,91.0" fill="#0d1117" stroke="#FF6666" stroke-width="1.2" opacity="0.7"/>
      <circle cx="1078" cy="100" r="2.5" fill="#FF6666" opacity="0.6"/>
      <polygon points="1169.8,95.5 1169.8,104.5 1162.0,109.0 1154.2,104.5 1154.2,95.5 1162.0,91.0" fill="#0d1117" stroke="#FF6666" stroke-width="1.2" opacity="0.7"/>
      <circle cx="1162" cy="100" r="2.5" fill="#FF6666" opacity="0.6"/>
      <line x1="1178" y1="100" x2="1194" y2="100" stroke="#FF6666" stroke-width="1" stroke-dasharray="3,4" opacity="0.35"/>
      <!-- Exadata -->
      <rect x="2777" y="3" width="118" height="86" rx="9" fill="none" stroke="#FF6666" stroke-width="1.2" opacity="0.5" filter="url(#ng)"/>
      <rect x="2778" y="4" width="116" height="84" rx="8" fill="#1A0000"/>
      <rect x="2778" y="4" width="116" height="84" rx="8" fill="url(#hl)"/>
      <rect x="2784" y="4" width="104" height="2" rx="1" fill="#FF6666" opacity="0.9"/>
      <circle cx="2836" cy="31" r="15" fill="#FF6666" fill-opacity="0.15" stroke="#FF6666" stroke-width="0.8"/>
      <text x="2836" y="35" text-anchor="middle" fill="#FF6666" font-size="9" font-weight="bold" font-family="Courier New,monospace">EXA</text>
      <text x="2836" y="63" text-anchor="middle" fill="#FFFFFF" font-size="9" font-weight="bold" font-family="Courier New,monospace">Exadata</text>
      <text x="2836" y="77" text-anchor="middle" fill="#FF6666" font-size="6" font-family="Courier New,monospace" opacity="0.85">300TB+ Migrated</text>
      <polygon points="2801.8,95.5 2801.8,104.5 2794.0,109.0 2786.2,104.5 2786.2,95.5 2794.0,91.0" fill="#0d1117" stroke="#FF6666" stroke-width="1.2" opacity="0.7"/>
      <circle cx="2794" cy="100" r="2.5" fill="#FF6666" opacity="0.6"/>
      <polygon points="2885.8,95.5 2885.8,104.5 2878.0,109.0 2870.2,104.5 2870.2,95.5 2878.0,91.0" fill="#0d1117" stroke="#FF6666" stroke-width="1.2" opacity="0.7"/>
      <circle cx="2878" cy="100" r="2.5" fill="#FF6666" opacity="0.6"/>
      <line x1="2894" y1="100" x2="2910" y2="100" stroke="#FF6666" stroke-width="1" stroke-dasharray="3,4" opacity="0.35"/>
      <!-- OCI ATP -->
      <rect x="1193" y="3" width="118" height="86" rx="9" fill="none" stroke="#BB55FF" stroke-width="1.2" opacity="0.5" filter="url(#ng)"/>
      <rect x="1194" y="4" width="116" height="84" rx="8" fill="#1A0040"/>
      <rect x="1194" y="4" width="116" height="84" rx="8" fill="url(#hl)"/>
      <rect x="1200" y="4" width="104" height="2" rx="1" fill="#BB55FF" opacity="0.9"/>
      <circle cx="1252" cy="31" r="15" fill="#BB55FF" fill-opacity="0.15" stroke="#BB55FF" stroke-width="0.8"/>
      <text x="1252" y="35" text-anchor="middle" fill="#BB55FF" font-size="9" font-weight="bold" font-family="Courier New,monospace">ATP</text>
      <text x="1252" y="63" text-anchor="middle" fill="#FFFFFF" font-size="9" font-weight="bold" font-family="Courier New,monospace">OCI ATP</text>
      <text x="1252" y="77" text-anchor="middle" fill="#BB55FF" font-size="6" font-family="Courier New,monospace" opacity="0.85">Autonomous Database</text>
      <polygon points="1217.8,95.5 1217.8,104.5 1210.0,109.0 1202.2,104.5 1202.2,95.5 1210.0,91.0" fill="#0d1117" stroke="#BB55FF" stroke-width="1.2" opacity="0.7"/>
      <circle cx="1210" cy="100" r="2.5" fill="#BB55FF" opacity="0.6"/>
      <polygon points="1301.8,95.5 1301.8,104.5 1294.0,109.0 1286.2,104.5 1286.2,95.5 1294.0,91.0" fill="#0d1117" stroke="#BB55FF" stroke-width="1.2" opacity="0.7"/>
      <circle cx="1294" cy="100" r="2.5" fill="#BB55FF" opacity="0.6"/>
      <line x1="1310" y1="100" x2="1326" y2="100" stroke="#BB55FF" stroke-width="1" stroke-dasharray="3,4" opacity="0.35"/>
      <!-- OCI ATP -->
      <rect x="2909" y="3" width="118" height="86" rx="9" fill="none" stroke="#BB55FF" stroke-width="1.2" opacity="0.5" filter="url(#ng)"/>
      <rect x="2910" y="4" width="116" height="84" rx="8" fill="#1A0040"/>
      <rect x="2910" y="4" width="116" height="84" rx="8" fill="url(#hl)"/>
      <rect x="2916" y="4" width="104" height="2" rx="1" fill="#BB55FF" opacity="0.9"/>
      <circle cx="2968" cy="31" r="15" fill="#BB55FF" fill-opacity="0.15" stroke="#BB55FF" stroke-width="0.8"/>
      <text x="2968" y="35" text-anchor="middle" fill="#BB55FF" font-size="9" font-weight="bold" font-family="Courier New,monospace">ATP</text>
      <text x="2968" y="63" text-anchor="middle" fill="#FFFFFF" font-size="9" font-weight="bold" font-family="Courier New,monospace">OCI ATP</text>
      <text x="2968" y="77" text-anchor="middle" fill="#BB55FF" font-size="6" font-family="Courier New,monospace" opacity="0.85">Autonomous Database</text>
      <polygon points="2933.8,95.5 2933.8,104.5 2926.0,109.0 2918.2,104.5 2918.2,95.5 2926.0,91.0" fill="#0d1117" stroke="#BB55FF" stroke-width="1.2" opacity="0.7"/>
      <circle cx="2926" cy="100" r="2.5" fill="#BB55FF" opacity="0.6"/>
      <polygon points="3017.8,95.5 3017.8,104.5 3010.0,109.0 3002.2,104.5 3002.2,95.5 3010.0,91.0" fill="#0d1117" stroke="#BB55FF" stroke-width="1.2" opacity="0.7"/>
      <circle cx="3010" cy="100" r="2.5" fill="#BB55FF" opacity="0.6"/>
      <line x1="3026" y1="100" x2="3042" y2="100" stroke="#BB55FF" stroke-width="1" stroke-dasharray="3,4" opacity="0.35"/>
      <!-- DBCS -->
      <rect x="1325" y="3" width="118" height="86" rx="9" fill="none" stroke="#3399FF" stroke-width="1.2" opacity="0.5" filter="url(#ng)"/>
      <rect x="1326" y="4" width="116" height="84" rx="8" fill="#001028"/>
      <rect x="1326" y="4" width="116" height="84" rx="8" fill="url(#hl)"/>
      <rect x="1332" y="4" width="104" height="2" rx="1" fill="#3399FF" opacity="0.9"/>
      <circle cx="1384" cy="31" r="15" fill="#3399FF" fill-opacity="0.15" stroke="#3399FF" stroke-width="0.8"/>
      <text x="1384" y="35" text-anchor="middle" fill="#3399FF" font-size="9" font-weight="bold" font-family="Courier New,monospace">DBC</text>
      <text x="1384" y="63" text-anchor="middle" fill="#FFFFFF" font-size="9" font-weight="bold" font-family="Courier New,monospace">DBCS</text>
      <text x="1384" y="77" text-anchor="middle" fill="#3399FF" font-size="6" font-family="Courier New,monospace" opacity="0.85">DB Cloud Service</text>
      <polygon points="1349.8,95.5 1349.8,104.5 1342.0,109.0 1334.2,104.5 1334.2,95.5 1342.0,91.0" fill="#0d1117" stroke="#3399FF" stroke-width="1.2" opacity="0.7"/>
      <circle cx="1342" cy="100" r="2.5" fill="#3399FF" opacity="0.6"/>
      <polygon points="1433.8,95.5 1433.8,104.5 1426.0,109.0 1418.2,104.5 1418.2,95.5 1426.0,91.0" fill="#0d1117" stroke="#3399FF" stroke-width="1.2" opacity="0.7"/>
      <circle cx="1426" cy="100" r="2.5" fill="#3399FF" opacity="0.6"/>
      <line x1="1442" y1="100" x2="1458" y2="100" stroke="#3399FF" stroke-width="1" stroke-dasharray="3,4" opacity="0.35"/>
      <!-- DBCS -->
      <rect x="3041" y="3" width="118" height="86" rx="9" fill="none" stroke="#3399FF" stroke-width="1.2" opacity="0.5" filter="url(#ng)"/>
      <rect x="3042" y="4" width="116" height="84" rx="8" fill="#001028"/>
      <rect x="3042" y="4" width="116" height="84" rx="8" fill="url(#hl)"/>
      <rect x="3048" y="4" width="104" height="2" rx="1" fill="#3399FF" opacity="0.9"/>
      <circle cx="3100" cy="31" r="15" fill="#3399FF" fill-opacity="0.15" stroke="#3399FF" stroke-width="0.8"/>
      <text x="3100" y="35" text-anchor="middle" fill="#3399FF" font-size="9" font-weight="bold" font-family="Courier New,monospace">DBC</text>
      <text x="3100" y="63" text-anchor="middle" fill="#FFFFFF" font-size="9" font-weight="bold" font-family="Courier New,monospace">DBCS</text>
      <text x="3100" y="77" text-anchor="middle" fill="#3399FF" font-size="6" font-family="Courier New,monospace" opacity="0.85">DB Cloud Service</text>
      <polygon points="3065.8,95.5 3065.8,104.5 3058.0,109.0 3050.2,104.5 3050.2,95.5 3058.0,91.0" fill="#0d1117" stroke="#3399FF" stroke-width="1.2" opacity="0.7"/>
      <circle cx="3058" cy="100" r="2.5" fill="#3399FF" opacity="0.6"/>
      <polygon points="3149.8,95.5 3149.8,104.5 3142.0,109.0 3134.2,104.5 3134.2,95.5 3142.0,91.0" fill="#0d1117" stroke="#3399FF" stroke-width="1.2" opacity="0.7"/>
      <circle cx="3142" cy="100" r="2.5" fill="#3399FF" opacity="0.6"/>
      <line x1="3158" y1="100" x2="3174" y2="100" stroke="#3399FF" stroke-width="1" stroke-dasharray="3,4" opacity="0.35"/>
      <!-- Linux -->
      <rect x="1457" y="3" width="118" height="86" rx="9" fill="none" stroke="#FFD700" stroke-width="1.2" opacity="0.5" filter="url(#ng)"/>
      <rect x="1458" y="4" width="116" height="84" rx="8" fill="#0D0D00"/>
      <rect x="1458" y="4" width="116" height="84" rx="8" fill="url(#hl)"/>
      <rect x="1464" y="4" width="104" height="2" rx="1" fill="#FFD700" opacity="0.9"/>
      <circle cx="1516" cy="31" r="15" fill="#FFD700" fill-opacity="0.15" stroke="#FFD700" stroke-width="0.8"/>
      <text x="1516" y="35" text-anchor="middle" fill="#FFD700" font-size="9" font-weight="bold" font-family="Courier New,monospace">LNX</text>
      <text x="1516" y="63" text-anchor="middle" fill="#FFFFFF" font-size="9" font-weight="bold" font-family="Courier New,monospace">Linux</text>
      <text x="1516" y="77" text-anchor="middle" fill="#FFD700" font-size="6" font-family="Courier New,monospace" opacity="0.85">Admin · Bash · Scripting</text>
      <polygon points="1481.8,95.5 1481.8,104.5 1474.0,109.0 1466.2,104.5 1466.2,95.5 1474.0,91.0" fill="#0d1117" stroke="#FFD700" stroke-width="1.2" opacity="0.7"/>
      <circle cx="1474" cy="100" r="2.5" fill="#FFD700" opacity="0.6"/>
      <polygon points="1565.8,95.5 1565.8,104.5 1558.0,109.0 1550.2,104.5 1550.2,95.5 1558.0,91.0" fill="#0d1117" stroke="#FFD700" stroke-width="1.2" opacity="0.7"/>
      <circle cx="1558" cy="100" r="2.5" fill="#FFD700" opacity="0.6"/>
      <line x1="1574" y1="100" x2="1590" y2="100" stroke="#FFD700" stroke-width="1" stroke-dasharray="3,4" opacity="0.35"/>
      <!-- Linux -->
      <rect x="3173" y="3" width="118" height="86" rx="9" fill="none" stroke="#FFD700" stroke-width="1.2" opacity="0.5" filter="url(#ng)"/>
      <rect x="3174" y="4" width="116" height="84" rx="8" fill="#0D0D00"/>
      <rect x="3174" y="4" width="116" height="84" rx="8" fill="url(#hl)"/>
      <rect x="3180" y="4" width="104" height="2" rx="1" fill="#FFD700" opacity="0.9"/>
      <circle cx="3232" cy="31" r="15" fill="#FFD700" fill-opacity="0.15" stroke="#FFD700" stroke-width="0.8"/>
      <text x="3232" y="35" text-anchor="middle" fill="#FFD700" font-size="9" font-weight="bold" font-family="Courier New,monospace">LNX</text>
      <text x="3232" y="63" text-anchor="middle" fill="#FFFFFF" font-size="9" font-weight="bold" font-family="Courier New,monospace">Linux</text>
      <text x="3232" y="77" text-anchor="middle" fill="#FFD700" font-size="6" font-family="Courier New,monospace" opacity="0.85">Admin · Bash · Scripting</text>
      <polygon points="3197.8,95.5 3197.8,104.5 3190.0,109.0 3182.2,104.5 3182.2,95.5 3190.0,91.0" fill="#0d1117" stroke="#FFD700" stroke-width="1.2" opacity="0.7"/>
      <circle cx="3190" cy="100" r="2.5" fill="#FFD700" opacity="0.6"/>
      <polygon points="3281.8,95.5 3281.8,104.5 3274.0,109.0 3266.2,104.5 3266.2,95.5 3274.0,91.0" fill="#0d1117" stroke="#FFD700" stroke-width="1.2" opacity="0.7"/>
      <circle cx="3274" cy="100" r="2.5" fill="#FFD700" opacity="0.6"/>
      <line x1="3290" y1="100" x2="3306" y2="100" stroke="#FFD700" stroke-width="1" stroke-dasharray="3,4" opacity="0.35"/>
      <!-- Multicloud -->
      <rect x="1589" y="3" width="118" height="86" rx="9" fill="none" stroke="#44AAFF" stroke-width="1.2" opacity="0.5" filter="url(#ng)"/>
      <rect x="1590" y="4" width="116" height="84" rx="8" fill="#000A28"/>
      <rect x="1590" y="4" width="116" height="84" rx="8" fill="url(#hl)"/>
      <rect x="1596" y="4" width="104" height="2" rx="1" fill="#44AAFF" opacity="0.9"/>
      <circle cx="1648" cy="31" r="15" fill="#44AAFF" fill-opacity="0.15" stroke="#44AAFF" stroke-width="0.8"/>
      <text x="1648" y="35" text-anchor="middle" fill="#44AAFF" font-size="9" font-weight="bold" font-family="Courier New,monospace">MCL</text>
      <text x="1648" y="63" text-anchor="middle" fill="#FFFFFF" font-size="9" font-weight="bold" font-family="Courier New,monospace">Multicloud</text>
      <text x="1648" y="77" text-anchor="middle" fill="#44AAFF" font-size="6" font-family="Courier New,monospace" opacity="0.85">OCI · AWS · GCP</text>
      <polygon points="1613.8,95.5 1613.8,104.5 1606.0,109.0 1598.2,104.5 1598.2,95.5 1606.0,91.0" fill="#0d1117" stroke="#44AAFF" stroke-width="1.2" opacity="0.7"/>
      <circle cx="1606" cy="100" r="2.5" fill="#44AAFF" opacity="0.6"/>
      <polygon points="1697.8,95.5 1697.8,104.5 1690.0,109.0 1682.2,104.5 1682.2,95.5 1690.0,91.0" fill="#0d1117" stroke="#44AAFF" stroke-width="1.2" opacity="0.7"/>
      <circle cx="1690" cy="100" r="2.5" fill="#44AAFF" opacity="0.6"/>
      <line x1="1706" y1="100" x2="1722" y2="100" stroke="#44AAFF" stroke-width="1" stroke-dasharray="3,4" opacity="0.35"/>
      <!-- Multicloud -->
      <rect x="3305" y="3" width="118" height="86" rx="9" fill="none" stroke="#44AAFF" stroke-width="1.2" opacity="0.5" filter="url(#ng)"/>
      <rect x="3306" y="4" width="116" height="84" rx="8" fill="#000A28"/>
      <rect x="3306" y="4" width="116" height="84" rx="8" fill="url(#hl)"/>
      <rect x="3312" y="4" width="104" height="2" rx="1" fill="#44AAFF" opacity="0.9"/>
      <circle cx="3364" cy="31" r="15" fill="#44AAFF" fill-opacity="0.15" stroke="#44AAFF" stroke-width="0.8"/>
      <text x="3364" y="35" text-anchor="middle" fill="#44AAFF" font-size="9" font-weight="bold" font-family="Courier New,monospace">MCL</text>
      <text x="3364" y="63" text-anchor="middle" fill="#FFFFFF" font-size="9" font-weight="bold" font-family="Courier New,monospace">Multicloud</text>
      <text x="3364" y="77" text-anchor="middle" fill="#44AAFF" font-size="6" font-family="Courier New,monospace" opacity="0.85">OCI · AWS · GCP</text>
      <polygon points="3329.8,95.5 3329.8,104.5 3322.0,109.0 3314.2,104.5 3314.2,95.5 3322.0,91.0" fill="#0d1117" stroke="#44AAFF" stroke-width="1.2" opacity="0.7"/>
      <circle cx="3322" cy="100" r="2.5" fill="#44AAFF" opacity="0.6"/>
      <polygon points="3413.8,95.5 3413.8,104.5 3406.0,109.0 3398.2,104.5 3398.2,95.5 3406.0,91.0" fill="#0d1117" stroke="#44AAFF" stroke-width="1.2" opacity="0.7"/>
      <circle cx="3406" cy="100" r="2.5" fill="#44AAFF" opacity="0.6"/>
      <line x1="3422" y1="100" x2="3438" y2="100" stroke="#44AAFF" stroke-width="1" stroke-dasharray="3,4" opacity="0.35"/>
</g>
<rect x="0" y="0" width="75" height="118" fill="url(#fl)"/>
<rect x="725" y="0" width="75" height="118" fill="url(#fr)"/>
</svg>
